<svg xmlns="http://www.w3.org/2000/svg">
<defs>
<font id="UTMNokiaStandard" horiz-adv-x="1253" >
  <font-face 
    font-family="UTM Nokia Standard"
    font-weight="400"
    font-stretch="normal"
    units-per-em="2048"
    panose-1="2 4 6 3 5 5 6 2 2 4"
    ascent="1638"
    descent="-410"
    x-height="1163"
    cap-height="1491"
    bbox="-116 -372 4942 2127"
    underline-thickness="109"
    underline-position="-143"
    unicode-range="U+0020-2026"
  />
<missing-glyph horiz-adv-x="5040" 
d="M3351 2045h10q37 -10 37 -52q0 -12 -32 -57h-28q0 24 28 54l2 10q-5 13 -10 15h-9q-8 0 -10 -19h-30q6 49 42 49zM2019 2016l29 -31q0 -16 -40 -30h-19l-59 12l-11 -12l-28 25q11 29 43 29h11l42 -11h2q10 0 30 18zM468 1980h142v-60h-94v-75h89v-59h-89v-129l-5 -5h-49
v323zM1155 1980h43l6 -5v-78h30v-52h-30v-188l-6 -5h-49v193h-25v52h25v78zM1621 1980h42l4 -5v-94h3q23 24 54 24h2q58 0 83 -71l2 -39v-143h-52v115q0 80 -42 80h-7q-43 0 -43 -86v-109h-51v323zM2200 1980h49l5 -5v-222q10 -51 45 -51q44 7 44 59v214l5 5h49v-216
q0 -85 -66 -112q-15 -8 -35 -8q-47 0 -82 55q-14 24 -14 57v224zM2435 1980h159v-60h-56v-268h-53v268h-55v55zM2621 1980h71q7 -4 83 -251h2l80 251h73v-328h-54v242h-2l-74 -242h-44q-4 0 -58 182l-19 60h-3v-242h-55v328zM3760 1980h52v-328h-45l-5 5v11l3 2l-3 14
q-29 -40 -78 -40q-67 0 -100 91l-5 39v3q0 94 92 125l23 3q35 0 63 -32h3v107zM2057 1928h36l4 -6v-49h-45v-221h-48v23q-23 -31 -59 -31q-89 14 -89 97v156h51v-104q0 -79 26 -86l18 -5h6q26 0 39 36l3 26v133h53v25zM3476 1928v-55h-31v-221h-47v25h-2q-15 -33 -57 -33
q-68 0 -86 78l-3 29v146h52v-120q0 -50 19 -68l21 -7h9q42 0 42 69v126h27q4 0 4 28l3 3h49zM758 1905q68 0 103 -77q9 -18 12 -54q0 -88 -90 -127l-32 -3q-63 0 -101 73q-12 22 -12 52v10q0 94 101 126h19zM1011 1905h3q74 0 83 -101v-152h-51v119q0 76 -42 76h-5
q-44 0 -44 -76v-119h-52v245h46v-21q30 29 62 29zM1466 1905h7q72 0 105 -89h-60q-16 31 -42 31h-17q-53 -14 -53 -61l-3 -15q12 -69 61 -69h9q22 0 47 27h40l2 3h3l2 -3l2 3l3 -3l2 3l2 -7q-33 -81 -110 -81q-76 0 -110 94l-4 36v3q0 85 77 120q15 8 37 8zM3141 1905h2

<glyph glyph-name=".notdef" horiz-adv-x="5040" 
d="M3351 2045h10q37 -10 37 -52q0 -12 -32 -57h-28q0 24 28 54l2 10q-5 13 -10 15h-9q-8 0 -10 -19h-30q6 49 42 49zM2019 2016l29 -31q0 -16 -40 -30h-19l-59 12l-11 -12l-28 25q11 29 43 29h11l42 -11h2q10 0 30 18zM468 1980h142v-60h-94v-75h89v-59h-89v-129l-5 -5h-49
v323zM1155 1980h43l6 -5v-78h30v-52h-30v-188l-6 -5h-49v193h-25v52h25v78zM1621 1980h42l4 -5v-94h3q23 24 54 24h2q58 0 83 -71l2 -39v-143h-52v115q0 80 -42 80h-7q-43 0 -43 -86v-109h-51v323zM2200 1980h49l5 -5v-222q10 -51 45 -51q44 7 44 59v214l5 5h49v-216
q0 -85 -66 -112q-15 -8 -35 -8q-47 0 -82 55q-14 24 -14 57v224zM2435 1980h159v-60h-56v-268h-53v268h-55v55zM2621 1980h71q7 -4 83 -251h2l80 251h73v-328h-54v242h-2l-74 -242h-44q-4 0 -58 182l-19 60h-3v-242h-55v328zM3760 1980h52v-328h-45l-5 5v11l3 2l-3 14
q-29 -40 -78 -40q-67 0 -100 91l-5 39v3q0 94 92 125l23 3q35 0 63 -32h3v107zM2057 1928h36l4 -6v-49h-45v-221h-48v23q-23 -31 -59 -31q-89 14 -89 97v156h51v-104q0 -79 26 -86l18 -5h6q26 0 39 36l3 26v133h53v25zM3476 1928v-55h-31v-221h-47v25h-2q-15 -33 -57 -33
q-68 0 -86 78l-3 29v146h52v-120q0 -50 19 -68l21 -7h9q42 0 42 69v126h27q4 0 4 28l3 3h49zM758 1905q68 0 103 -77q9 -18 12 -54q0 -88 -90 -127l-32 -3q-63 0 -101 73q-12 22 -12 52v10q0 94 101 126h19zM1011 1905h3q74 0 83 -101v-152h-51v119q0 76 -42 76h-5
q-44 0 -44 -76v-119h-52v245h46v-21q30 29 62 29zM1466 1905h7q72 0 105 -89h-60q-16 31 -42 31h-17q-53 -14 -53 -61l-3 -15q12 -69 61 -69h9q22 0 47 27h40l2 3h3l2 -3l2 3l3 -3l2 3l2 -7q-33 -81 -110 -81q-76 0 -110 94l-4 36v3q0 85 77 120q15 8 37 8zM3141 1905h2
q49 0 70 -60v-14h-52q0 16 -16 16h-4q-14 0 -19 -13v-13q0 -9 68 -35q30 -19 30 -59q0 -58 -61 -80l-23 -3q-76 12 -76 83h54q0 -20 27 -25h4q19 0 24 23q0 22 -68 44q-34 27 -34 59q0 66 74 77zM4203 1905q55 0 77 -63q7 -18 7 -65v-125h-52v112q0 83 -40 83h-11
q-33 0 -40 -54v-141h-52v5h-2l2 2v238h47v-21q25 29 64 29zM4432 1905h5q40 0 69 -40v18l-3 3l3 11h47v-208q0 -97 -85 -132l-33 -4h-7q-70 0 -104 80h59q24 -22 45 -23h13q22 0 43 22q15 13 22 52h-3q-32 -40 -73 -40q-57 0 -96 70q-10 18 -14 63q0 88 87 125zM3851 1897
h53v-136q6 -59 40 -59h7q46 0 46 93v102h51v-245h-47l-3 10h3l-3 3v5l3 2v3h-4q0 -23 -57 -31h-3q-59 0 -84 75l-2 85v93zM690 1771q10 -69 63 -69h7q59 14 59 65v15q-13 65 -59 65h-5q-58 0 -65 -76zM3630 1774q13 -72 61 -72h5q58 0 66 75q0 49 -51 70h-22q-37 0 -56 -57z
M4374 1774q8 -72 65 -72h5q59 12 59 72q0 61 -59 73h-14q-56 -16 -56 -62v-11zM3928 1620h52v-57h-52v57zM1054 1402q43 -11 43 -49v-4q0 -17 -32 -60h-28q0 25 31 57v7q0 12 -7 15h-12q-10 -4 -10 -19h-28v6q0 32 33 44zM3349 1339q92 0 138 -99h-60q-37 42 -80 42
q-55 0 -87 -68q-10 -22 -10 -47q0 -78 81 -110l18 -1q36 0 75 39h61q-44 -97 -138 -97q-93 0 -141 112q-10 31 -10 62q0 97 90 152q29 15 63 15zM3664 1339q57 0 103 -47q46 -51 46 -115v-20q0 -89 -91 -146q-33 -13 -63 -13q-89 0 -138 101q-13 33 -13 60v18q0 98 98 151
q29 11 58 11zM2261 1337h2l47 -11h3q11 0 26 11l18 -36q-18 -19 -35 -19h-3l-54 10l-20 -7l-20 36q18 16 36 16zM716 1334h19q118 0 129 -26q25 -26 25 -62q-10 -57 -30 -57v-6q47 -23 47 -66v-18q0 -63 -69 -88l-54 -5h-67v328zM2550 1334h53v-217q6 -61 45 -61q29 0 44 39
l3 30v203l4 6h45l5 -6v-171q0 -118 -40 -133q-24 -26 -64 -26q-55 0 -91 76l-4 54v206zM2805 1334h59q4 0 122 -237h4v237h50l4 -6v-322h-58q-29 48 -125 238h-3v-238h-53v328zM3101 1334h54v-328h-54v328zM3859 1334h8q155 0 174 -40q23 -11 47 -75l4 -36v-11l3 -2
q0 -94 -82 -149q-35 -15 -99 -15h-55v328zM4141 1334h153v-60h-103v-75h101v-57h-101v-74l4 -5h99v-57h-157v322zM3563 1175v-10q0 -76 79 -108l19 -1q68 0 96 86l3 20v15q0 61 -60 94q-12 8 -39 11q-66 0 -96 -83zM770 1274v-67h9q54 0 54 28l3 14q-11 25 -29 25h-37z
M3912 1274v-206l2 -3v-2q104 0 122 76l2 15v29q0 34 -32 68q-25 23 -78 23h-16zM1041 1259h5q38 0 71 -40v32h49v-245h-49v32q-36 -40 -80 -40q-75 0 -101 97l-5 36q0 89 85 125zM1314 1259h3q74 0 83 -102v-151h-51v128q0 67 -42 67h-10q-34 0 -39 -62v-133h-52v245h47v-21
q28 29 61 29zM1543 1259h5q45 0 71 -40v32h47v-219q0 -95 -104 -126h-16q-74 0 -108 82h59q26 -25 44 -25h14q52 0 64 77q-33 -42 -76 -42q-60 0 -101 81l-7 44v16q0 79 85 117zM1912 1259h2q43 0 61 -37h2q32 37 69 37h4q57 0 79 -55q8 -25 8 -45v-153h-52v138q0 44 -23 55
l-12 2h-15q-32 0 -36 -65v-130h-52v136q0 59 -43 59h-8q-32 0 -36 -57v-138h-54v245h50v-21h2q6 24 54 29zM2282 1259q47 0 75 -42v34h47v-245h-47v32q-36 -40 -78 -40q-74 0 -102 92l-6 41q0 90 85 125zM985 1117q0 -48 61 -61h4q45 0 62 46l3 15v22q-12 62 -57 62h-14
q-41 0 -59 -57v-27zM1487 1128q0 -48 43 -68l18 -4h5q47 0 63 57v23q-11 65 -58 65h-12q-50 0 -59 -73zM2225 1131v-14q15 -61 57 -61h14q58 12 58 64v11q0 45 -37 65l-18 5h-10q-64 -8 -64 -70zM770 1150v-82q0 -5 7 -5q77 0 77 45q0 34 -47 42h-37zM2966 753l24 -28
l-51 -55q-18 12 -27 26zM1524 727l85 -54q0 -15 -21 -42l-87 54q18 41 23 42zM2850 693h38l55 -60h-54l-21 26l-23 -26h-54q54 60 59 60zM3422 693h40l56 -60h-54l-24 26h-1q0 -5 -19 -26h-54zM622 685h52q8 -4 47 -137l34 -110q9 8 34 100l48 147h54v-2l-112 -326h-44z
M1159 685h51v-54h-51v54zM1354 685h46l6 -5v-323h-52v328zM2317 685h45l4 -5v-78h31v-52h-31v-193h-53v193h-26v52h26v78zM2425 685h52v-98h2q23 23 54 23h3q57 0 81 -71l3 -38v-144h-52v115q0 81 -39 81h-10q-42 0 -42 -87v-109h-52v328zM2664 685h52v-54h-52v54zM3028 685
h44l6 -5v-78h29v-52h-29v-193h-54v193h-27v52h27v78zM3234 685h52v-328h-52v328zM3957 685h52v-328h-52v328zM4316 685h51v-54h-51v54zM1555 610h5q83 0 110 -102l3 -23v-11q0 -83 -85 -120l-35 -5q-76 0 -111 97l-4 32q0 97 93 130zM1811 610h4q53 0 78 -60q7 -25 7 -81
v-112h-54v146q-7 50 -37 50h-10q-38 0 -42 -57v-139h-54v245h49v-21q26 29 59 29zM2046 610h4q45 0 63 -39h3v31h49v-206q0 -102 -89 -135l-28 -3h-5q-73 0 -106 81h52l37 -20l15 -3h14q50 0 61 72q-33 -39 -73 -39q-62 0 -98 76q-11 23 -12 60q0 85 86 123zM2866 610h2
q82 0 111 -104l2 -25l-2 -27h-172q15 -45 45 -45l14 -3q29 0 49 22h57v-3q-35 -76 -108 -76q-77 0 -111 97l-1 28v8q0 49 32 89q34 39 82 39zM3429 610h5q41 0 70 -39h2v31h47v-245h-47v31h-2q-35 -39 -77 -39q-71 0 -101 89l-5 36v14q0 86 84 120zM3711 610h7
q88 0 107 -128l-2 -1v-15q0 -65 -66 -106q-21 -11 -46 -11q-34 0 -64 32v-99l-5 -5h-49v325h49v-28q31 36 69 36zM4151 610q44 0 75 -39v31h49v-245h-49v31q-35 -39 -77 -39q-92 0 -108 132q0 84 73 121q15 8 37 8zM922 602h50v-136q3 -60 42 -60h5q44 0 44 87v109h52v-245
h-47v24h-5q0 -23 -56 -32h-3q-55 0 -82 68q-4 35 -4 99v81zM1159 602h51v-245h-51v245zM2664 602h52v-245h-52v245zM4316 602h51v-245h-51v245zM1492 488v-16q13 -66 59 -66h4q59 0 66 76q-13 71 -59 71h-11q-59 -16 -59 -65zM1987 472q15 -66 59 -66h11q48 0 59 75v1
q-13 71 -59 71h-14q-39 0 -56 -57v-24zM2805 506h122v2q-16 45 -59 45h-7q-35 0 -56 -47zM3373 474q13 -68 61 -68h5q52 0 65 63v12q-10 72 -57 72h-16q-56 -14 -56 -63zM3642 478q12 -72 61 -72h3q50 0 65 60v22q0 43 -49 65h-22q-47 0 -58 -72v-3zM4095 472q10 -66 66 -66
q43 0 61 48l2 15v16q0 54 -52 68h-18q-42 0 -59 -60v-21zM3416 321h51v-52h-51v52zM4137 321h51v-52h-51v52zM2733 133h4q35 0 43 -50v-2q0 -16 -24 -41l-10 -17h-28q0 25 28 56l3 2v2q-3 19 -9 19h-10q-8 0 -9 -19h-30q6 50 42 50zM1546 116l52 -60l-26 -19l-52 52zM352 79
h4q75 -48 85 -60l-20 -37q-88 49 -88 58zM3490 79l86 -58l-18 -39q-10 0 -91 55q15 36 23 42zM4578 76l19 -42l-91 -52l-20 39l92 58v-3zM1204 53h51v-19l5 -5h14v-36h-14l-5 -5v-279h-46v31q-34 -40 -81 -40q-72 0 -102 105l-3 26q0 102 101 131h14q33 0 66 -33v59l-6 5
h-43v36h49v24zM1480 45h40l56 -61h-53l-23 27l-23 -27h-53zM2641 45h33q12 0 63 -61h-54l-23 27q-19 -21 -19 -27h-58v4zM49 37h160v-60h-56v-268h-50l-4 5v245l2 3v2l-2 2l2 3l-2 2l2 3l-2 3h-54v54zM699 37h47v-73l2 -2l-2 -3v-3l2 -2l-2 -3v-3l2 -2v-2l-2 -3l2 -3h3
q17 24 51 24h3q53 0 77 -58q7 -17 7 -42v-153h-52v127q0 68 -40 68h-8q-43 0 -43 -86v-109h-52v322zM1297 37h47l5 -6v-49h-52v55zM1987 37h52v-198l70 115h62l-78 -118l90 -125v-2h-70q-10 22 -74 115v-115h-52v328zM2271 37v-99q24 24 53 24q57 0 80 -56q10 -19 10 -77
v-120h-54v133q0 62 -41 62h-11q-31 0 -37 -55v-140h-53v314l-1 3v3l1 2l-1 3l1 3h53zM2458 37h51v-55h-51v55zM3148 37h51v-108q27 33 68 33h3q75 0 105 -94l5 -37q0 -75 -64 -120q-30 -11 -49 -11q-41 0 -72 40v-31h-47v328zM4275 37h52v-99h2q23 24 54 24h3q60 0 82 -74
l2 -41v-138h-52v111q0 82 -32 82l-10 2h-12q-37 0 -37 -80v-115h-52v328zM329 -38h3v-58h-5q-42 0 -42 -57v-138h-53v245h47v-21q18 29 50 29zM564 -38q71 0 86 -87v-166h-51v136q-6 59 -41 59h-6q-45 0 -45 -84v-111h-52v245h50v-21q25 29 59 29zM1504 -38q72 0 105 -94
l5 -39q-2 -24 -7 -24h-169q17 -47 62 -47q24 0 48 21h57q-33 -79 -108 -79q-82 0 -113 105v37q0 81 89 117zM2657 -38h5q77 0 107 -97l3 -26v-21l-3 -13h-170q18 -47 53 -47h12q21 0 42 21h59q-34 -79 -105 -79q-84 0 -115 102l-2 29q0 93 91 128zM2915 -38h4q54 0 78 -60
q7 -25 7 -82v-111h-54v138q0 48 -35 57h-11q-38 0 -43 -57v-138h-54v245h50v-21q25 29 58 29zM3508 -38h6q40 0 70 -40h2v32h47v-245h-47v31h-2q-34 -40 -78 -40q-71 0 -101 90l-4 37v12q0 82 77 117q11 6 30 6zM3781 -38h4q62 0 82 -78l3 -84v-91h-54v138q0 48 -38 57h-9
q-38 0 -42 -52v-143h-54v245h49v-21q26 29 59 29zM4133 -38h1q74 0 104 -93l4 -40q0 -88 -84 -126l-25 -3q-41 0 -68 34v-106h-52v326h47v-29q30 37 73 37zM4714 -38h5q34 0 63 -37q27 37 69 37h6q56 0 79 -66l6 -51v-136h-52v122q0 73 -39 73h-7q-35 0 -41 -50v-140l-5 -5
h-48v140q0 42 -31 55h-17q-40 0 -40 -77v-118h-51v245h47v-21q22 29 56 29zM359 -46h49l5 -6v-234l-5 -5h-49v245zM1297 -46h52v-245h-52v245zM1649 -46h52v-136q4 -60 43 -60h4q44 0 44 81v115h52v-245h-47v24h-5q-12 -33 -59 -33q-52 0 -79 63q-5 12 -5 34v157zM2458 -46
h51v-245h-51v245zM4515 -46h51v-245h-51v245zM1077 -169q0 -53 51 -73h12q54 0 66 66v10q0 53 -54 70h-17q-38 0 -58 -57v-16zM1438 -143h122q-18 47 -53 47h-7q-43 0 -62 -44v-3zM2599 -143h122q-21 47 -54 47h-7q-46 0 -61 -47zM3196 -158v-11q10 -73 61 -73h5q64 8 64 71
v5q0 45 -38 65l-18 5h-14q-60 -14 -60 -62zM3452 -173q14 -69 62 -69h11q41 0 59 60v13q-8 73 -56 73h-17q-47 0 -59 -73v-4zM4062 -158v-22q0 -47 59 -62h9q50 0 61 76q-13 70 -58 70h-15q-56 -17 -56 -62z" />
    <glyph glyph-name=".null" horiz-adv-x="0" 
 />
    <glyph glyph-name="nonmarkingreturn" horiz-adv-x="571" 
 />
    <glyph glyph-name="space" unicode=" " horiz-adv-x="505" 
 />
    <glyph glyph-name="exclam" unicode="!" horiz-adv-x="595" 
d="M415 1491l-29 -1042h-176l-30 1042h235zM298 -16q-143 0 -143 145q0 141 143 141q142 0 142 -141q0 -145 -142 -145z" />
    <glyph glyph-name="quotedbl" unicode="&#x22;" horiz-adv-x="841" 
d="M714 1583l-33 -512h-152l-34 512h219zM345 1583l-33 -512h-151l-35 512h219z" />
    <glyph glyph-name="numbersign" unicode="#" horiz-adv-x="1339" 
d="M1243 897h-246l-43 -313h236v-140h-254l-64 -444h-158l62 444h-293l-63 -444h-158l61 444h-227v140h246l45 313h-238v137h256l64 457h159l-63 -457h293l65 457h158l-63 -457h225v-137zM839 897h-294l-43 -313h294z" />
    <glyph glyph-name="dollar" unicode="$" horiz-adv-x="974" 
d="M835 1276q-143 31 -247 31q-125 0 -191 -36q-84 -46 -84 -153q0 -98 72 -160q30 -27 85 -56l113 -58q75 -37 119 -64q61 -38 102 -80q99 -101 99 -256q0 -175 -91 -277q-82 -91 -229 -116v-203h-182v187q-164 0 -307 41v155q163 -47 293 -47q139 0 212 43q87 51 87 168
q0 112 -76 179q-33 28 -90 59l-102 51q-10 5 -17 8q-70 34 -117 65q-58 38 -97 81q-91 101 -91 252q0 147 87 239q79 85 218 113v200h182v-186q123 0 252 -31v-149z" />
    <glyph glyph-name="percent" unicode="%" horiz-adv-x="1769" 
d="M1668 281q-13 -86 -42 -146q-73 -145 -262 -145q-190 0 -264 147q-30 59 -42 146q-10 66 -10 159q0 85 11 149q13 82 44 140q76 143 263 143q185 0 259 -143q30 -58 42 -140q10 -64 10 -149q0 -94 -9 -161zM1496 568q-5 61 -17 99q-28 89 -115 89q-88 0 -117 -89
q-13 -39 -17 -100q-3 -44 -3 -125q0 -177 22 -245q29 -88 115 -88q84 0 113 88q22 68 22 245q0 81 -3 126zM1399 1491l-850 -1491h-178l849 1491h179zM711 908q-12 -87 -42 -146q-73 -146 -262 -146t-263 148q-30 59 -42 145q-10 67 -10 160q0 84 10 149q14 82 44 139
q77 144 263 144t260 -144q29 -57 42 -139q10 -64 10 -149q0 -94 -10 -161zM539 1195q-4 61 -16 99q-29 88 -116 88q-88 0 -117 -89q-12 -38 -17 -99q-3 -45 -3 -125q0 -177 23 -245q29 -89 114 -89q84 0 113 89q23 68 23 245q0 81 -4 126z" />
    <glyph glyph-name="ampersand" unicode="&#x26;" horiz-adv-x="1333" 
d="M941 111q-67 -57 -150 -89q-99 -38 -216 -38q-461 0 -461 397q0 150 82 260q65 86 205 172q-168 220 -168 363q0 160 104 248q100 83 273 83q352 0 352 -282q0 -133 -85 -237q-37 -45 -96 -93q-43 -36 -120 -90l330 -428q65 99 108 293l156 -33q-52 -245 -168 -385
l194 -252h-254zM603 1368q-165 0 -165 -168q0 -104 131 -274q107 73 152 147q40 66 40 152q0 143 -158 143zM491 696q-158 -119 -158 -303q0 -126 83 -198q73 -64 177 -64q91 0 165 34q28 13 54 31q11 7 21 16q9 7 18 15z" />
    <glyph glyph-name="quotesingle" unicode="'" horiz-adv-x="473" 
d="M345 1583l-33 -512h-151l-35 512h219z" />
    <glyph glyph-name="parenleft" unicode="(" horiz-adv-x="681" 
d="M614 -340q-275 0 -384 215q-108 214 -108 756q0 544 111 758q108 210 381 210v-149q-169 0 -224 -175q-51 -162 -51 -644q0 -248 11 -393q12 -162 40 -253q56 -175 224 -175v-150z" />
    <glyph glyph-name="parenright" unicode=")" horiz-adv-x="681" 
d="M67 1599q272 0 381 -210q111 -214 111 -758q0 -542 -109 -756q-108 -215 -383 -215v150q168 0 223 175q29 91 41 253q10 145 10 393q0 482 -51 644q-55 175 -223 175v149z" />
    <glyph glyph-name="asterisk" unicode="*" horiz-adv-x="1011" 
d="M950 895l-80 -137l-303 194l20 -358h-164l21 358l-303 -194l-80 137l317 166l-317 164l80 139l303 -195l-21 359h164l-20 -359l303 195l80 -139l-318 -164z" />
    <glyph glyph-name="plus" unicode="+" horiz-adv-x="1120" 
d="M1003 639h-354v-354h-181v354h-354v180h354v355h181v-355h354v-180z" />
    <glyph glyph-name="comma" unicode="," horiz-adv-x="414" 
d="M142 386q-23 -115 -52 -228q-27 -104 -58 -201h130q32 65 75 175q24 63 44 123q22 69 37 131h-176z" />
    <glyph glyph-name="hyphen" unicode="-" horiz-adv-x="686" 
d="M587 526h-489v203h489v-203z" />
    <glyph glyph-name="hyphen" unicode="&#x2010;" horiz-adv-x="686" 
d="M587 526h-489v203h489v-203z" />
    <glyph glyph-name="period" unicode="." horiz-adv-x="518" 
d="M259 -16q-143 0 -143 145q0 141 143 141q142 0 142 -141q0 -145 -142 -145z" />
    <glyph glyph-name="slash" unicode="/" horiz-adv-x="778" 
d="M751 1583l-537 -1917h-188l537 1917h188z" />
    <glyph glyph-name="zero" unicode="0" horiz-adv-x="1120" 
d="M998 620q-3 -76 -10 -140q-16 -149 -57 -250q-48 -117 -132 -178q-95 -68 -239 -68q-145 0 -240 68q-85 61 -133 178q-41 101 -57 250q-7 64 -10 140q-2 63 -2 144q0 72 3 131q3 71 11 131q17 142 59 239q50 115 135 175q96 67 238 67q141 0 235 -67q83 -60 131 -174
q41 -97 58 -239q7 -60 10 -131q3 -60 3 -132q0 -80 -3 -144zM777 986q-8 116 -29 192q-51 186 -188 186q-139 0 -190 -185q-21 -76 -29 -192q-6 -87 -6 -223q0 -156 7 -255q9 -123 30 -202q50 -180 188 -180q137 0 186 180q22 79 31 202q7 99 7 255q0 134 -7 222z" />
    <glyph glyph-name="one" unicode="1" horiz-adv-x="1120" 
d="M984 0h-821v143h311v1160l-311 -76v143l412 133h112v-1360h297v-143z" />
    <glyph glyph-name="two" unicode="2" horiz-adv-x="1120" 
d="M966 0h-844v88q0 127 37 237q32 96 94 184q50 72 127 146l137 121q59 50 89 78q45 42 73 78q68 86 68 174q0 252 -265 252q-75 0 -161 -20q-70 -16 -156 -48v156q181 61 354 61q206 0 320 -89q127 -99 127 -300q0 -145 -98 -273q-39 -52 -101 -109l-57 -51l-119 -100
q-33 -28 -58 -52q-63 -57 -103 -109q-102 -129 -107 -272h643v-152z" />
    <glyph glyph-name="three" unicode="3" horiz-adv-x="1120" 
d="M457 1358q-67 0 -143 -15q-50 -9 -144 -34v151q172 47 321 47q203 0 312 -80q125 -92 125 -288q0 -272 -265 -348q285 -48 285 -349q0 -236 -135 -351q-126 -107 -369 -107q-156 0 -313 47v151l83 -19q44 -9 78 -15q83 -15 154 -15q281 0 281 289q0 183 -119 245
q-56 29 -150 40q-78 10 -210 10v143q124 0 191 6q90 9 144 33q123 53 123 219q0 240 -249 240z" />
    <glyph glyph-name="four" unicode="4" horiz-adv-x="1120" 
d="M1030 338h-154v-338h-213v338h-616v141l633 1024h196v-1016h154v-149zM663 487v713l-426 -713h426z" />
    <glyph glyph-name="five" unicode="5" horiz-adv-x="1120" 
d="M397 940q20 1 49 2h51q465 0 465 -455q0 -503 -510 -503q-142 0 -305 45v153q5 -1 17 -4l17 -4q20 -5 35 -9q40 -10 72 -16q82 -16 144 -16q168 0 243 94q66 83 66 254q0 312 -330 312q-110 0 -219 -11v709h737v-150h-532v-401z" />
    <glyph glyph-name="six" unicode="6" horiz-adv-x="1120" 
d="M922 1339q-50 12 -99 16q-37 3 -92 3q-183 0 -282 -153q-41 -65 -66 -156q-23 -81 -31 -179q102 105 273 105q199 0 297 -135q86 -118 86 -326q0 -236 -103 -374q-115 -156 -342 -156q-141 0 -236 68q-83 60 -130 173q-39 94 -55 229q-6 56 -9 121q-2 53 -2 117
q0 155 29 291q32 151 96 262q72 123 179 189q118 73 276 73q112 0 211 -18v-150zM751 728q-52 103 -174 103q-119 0 -179 -90q-50 -76 -50 -200q0 -78 5 -134q8 -79 27 -135q51 -145 183 -145q137 0 190 121q21 49 30 122q7 57 7 138q0 141 -39 220z" />
    <glyph glyph-name="seven" unicode="7" horiz-adv-x="1120" 
d="M1001 1376q-204 -336 -306 -656q-110 -343 -120 -720h-221q2 337 123 696q108 324 303 641h-664v154h885v-115z" />
    <glyph glyph-name="eight" unicode="8" horiz-adv-x="1120" 
d="M253 1412q114 95 308 95q192 0 306 -95q122 -103 122 -290q0 -263 -219 -344q126 -39 188 -141q55 -92 55 -231q0 -422 -456 -422q-210 0 -330 108q-123 111 -123 314q0 136 57 231q63 106 187 141q-217 80 -217 344q0 187 122 290zM557 1364q-112 0 -167 -76
q-48 -67 -48 -184q0 -115 50 -184q57 -76 165 -76q221 0 221 260t-221 260zM739 622q-64 80 -182 80q-122 0 -183 -79q-55 -72 -55 -199q0 -134 52 -209q60 -88 186 -88q130 0 190 85q51 74 51 212q0 124 -59 198z" />
    <glyph glyph-name="nine" unicode="9" horiz-adv-x="1120" 
d="M194 156q81 -23 201 -23q202 0 291 149q37 63 57 155q16 76 22 181q-105 -102 -264 -102q-201 0 -299 138q-86 119 -86 329q0 234 99 370q112 154 333 154q146 0 242 -68q85 -60 133 -174q40 -95 56 -233q7 -57 9 -124q2 -54 2 -122q0 -160 -24 -292q-28 -150 -88 -257
q-67 -120 -173 -184q-116 -69 -278 -69q-110 0 -233 24v148zM766 1080q-9 77 -30 134q-55 150 -186 150q-139 0 -188 -132q-19 -51 -26 -125q-5 -48 -5 -126q0 -66 7 -115q9 -61 30 -103q51 -104 174 -104q231 0 231 293q0 69 -7 128z" />
    <glyph glyph-name="colon" unicode=":" horiz-adv-x="600" 
d="M300 780q-143 0 -143 146q0 141 143 141q142 0 142 -141q0 -146 -142 -146zM300 -16q-143 0 -143 145q0 141 143 141q142 0 142 -141q0 -145 -142 -145z" />
    <glyph glyph-name="semicolon" unicode=";" horiz-adv-x="480" 
d="M159 386q-23 -115 -52 -228q-27 -104 -58 -201h130q32 65 75 175q24 63 44 123q22 69 37 131h-176zM241 802q-115 0 -115 117q0 112 115 112q113 0 113 -112q0 -117 -113 -117z" />
    <glyph glyph-name="less" unicode="&#x3c;" horiz-adv-x="1120" 
d="M1005 252l-889 387v180l889 387v-182l-729 -295l729 -295v-182z" />
    <glyph glyph-name="equal" unicode="=" horiz-adv-x="1120" 
d="M1005 860h-889v180h889v-180zM1005 416h-889v182h889v-182z" />
    <glyph glyph-name="greater" unicode="&#x3e;" horiz-adv-x="1120" 
d="M1005 639l-889 -387v182l727 295l-727 295v182l889 -387v-180z" />
    <glyph glyph-name="question" unicode="?" horiz-adv-x="899" 
d="M57 1456q83 24 150 36q82 15 153 15q199 0 312 -79q130 -91 130 -281q0 -112 -73 -218q-28 -41 -72 -89l-39 -42l-10 -10q-2 -3 -9 -10l-20 -20q-147 -154 -147 -246v-63h-195v75q0 105 55 194q23 38 60 80q28 32 76 79l56 57q30 33 49 60q46 68 46 141q0 221 -252 221
q-63 0 -136 -15q-57 -11 -134 -34v149zM336 -16q-144 0 -144 145q0 141 144 141q141 0 141 -141q0 -145 -141 -145z" />
    <glyph glyph-name="at" unicode="@" horiz-adv-x="1841" 
d="M1295 1126q0 -4 -2 -15l-19 -124q-13 -89 -22 -160q-11 -89 -17 -157q-7 -80 -7 -131q0 -130 29 -175q24 -38 88 -38q204 0 204 376q0 309 -147 480q-151 176 -432 176q-280 0 -458 -164q-200 -182 -200 -516q0 -370 189 -550q171 -163 487 -163q94 0 216 24
q111 21 179 48v-148q-181 -75 -405 -75q-175 0 -323 47q-158 50 -272 150q-122 107 -187 265q-70 170 -70 392q0 211 71 377q66 154 189 261q230 201 580 201q370 0 566 -216q189 -207 189 -578q0 -253 -115 -392q-106 -128 -280 -128q-204 0 -233 210q-46 -100 -104 -151
q-68 -59 -161 -59q-122 0 -198 88q-84 98 -84 276q0 273 142 425q134 144 356 144h251zM1103 989h-78q-130 0 -214 -97q-95 -111 -95 -317q0 -249 151 -249q85 0 138 123q21 48 37 114q12 53 20 115z" />
    <glyph glyph-name="A" unicode="A" horiz-adv-x="1157" 
d="M1134 0h-225l-98 344h-496l-98 -344h-197l442 1491h238zM772 489l-207 779l-211 -779h418z" />
    <glyph glyph-name="B" unicode="B" horiz-adv-x="1148" 
d="M167 0v1491h436q196 0 298 -79q116 -89 116 -282q0 -245 -234 -344q279 -71 279 -366q0 -220 -136 -325q-123 -95 -353 -95h-406zM515 846q151 0 217 63t66 201q0 116 -58 176q-56 60 -194 60h-164v-500h133zM525 145q168 0 234 54q80 62 80 227q0 133 -64 203
q-68 73 -239 73h-154v-557h143z" />
    <glyph glyph-name="C" unicode="C" horiz-adv-x="954" 
d="M890 16q-119 -32 -231 -32q-166 0 -281 68q-103 61 -165 179q-55 102 -79 249q-20 122 -20 282q0 151 24 273q27 140 85 239q65 111 168 169q114 64 272 64q124 0 227 -30v-152q-107 33 -209 33q-104 0 -176 -57q-64 -51 -104 -145q-33 -80 -48 -190q-12 -89 -12 -196
q0 -118 12 -212q14 -120 47 -206q40 -102 106 -157q76 -62 186 -62q94 0 198 31v-148z" />
    <glyph glyph-name="D" unicode="D" horiz-adv-x="1220" 
d="M556 1491q310 0 443 -214q57 -93 83 -229q23 -119 23 -276q0 -165 -21 -286q-26 -147 -84 -247q-67 -114 -178 -174q-122 -65 -301 -65h-354v1491h389zM493 145q169 0 249 74q86 79 119 246q12 66 17 148q4 60 4 143q0 174 -30 296q-37 152 -120 224q-83 70 -225 70h-125
v-1201h111z" />
    <glyph glyph-name="E" unicode="E" horiz-adv-x="962" 
d="M902 0h-735v1491h729v-150h-514v-460h418v-150h-418v-581h520v-150z" />
    <glyph glyph-name="F" unicode="F" horiz-adv-x="937" 
d="M894 1341h-512v-505h399v-150h-399v-686h-215v1491h727v-150z" />
    <glyph glyph-name="G" unicode="G" horiz-adv-x="1169" 
d="M890 133q-78 -149 -278 -149q-157 0 -264 71q-94 64 -150 184q-48 101 -68 246q-16 112 -16 260q0 164 30 296q33 142 100 242q150 224 464 224q148 0 276 -39v-147q-116 37 -268 37q-109 0 -188 -58q-70 -51 -114 -145q-39 -81 -57 -190q-16 -92 -16 -193l1 -86
q1 -53 5 -100q9 -122 33 -211q31 -113 87 -174q67 -72 167 -72q195 0 195 209v260h-148v150h363v-748h-113z" />
    <glyph glyph-name="H" unicode="H" horiz-adv-x="1247" 
d="M1078 0h-215v737h-481v-737h-215v1491h215v-608h481v608h215v-1491z" />
    <glyph glyph-name="I" unicode="I" horiz-adv-x="634" 
d="M549 0h-463v150h123v1191h-123v150h463v-150h-125v-1191h125v-150z" />
    <glyph glyph-name="J" unicode="J" horiz-adv-x="624" 
d="M549 1341h-125v-1357q0 -310 -317 -310q-45 0 -99 7l-96 14v151l73 -12q42 -6 74 -6q150 0 150 164v1349h-123v150h463v-150z" />
    <glyph glyph-name="K" unicode="K" horiz-adv-x="1091" 
d="M1068 0h-254l-432 770v-770h-215v1491h215v-692l451 692h227l-463 -684z" />
    <glyph glyph-name="L" unicode="L" horiz-adv-x="929" 
d="M886 0h-719v1491h215v-1341h504v-150z" />
    <glyph glyph-name="M" unicode="M" horiz-adv-x="1476" 
d="M1308 0h-211v1075l-305 -567h-107l-307 567v-1075h-211v1491h170l403 -754l406 754h162v-1491z" />
    <glyph glyph-name="N" unicode="N" horiz-adv-x="1316" 
d="M1148 0h-160l-614 1110v-1110h-207v1491h176l598 -1079v1079h207v-1491z" />
    <glyph glyph-name="O" unicode="O" 
d="M1121 493q-22 -148 -72 -252q-58 -121 -155 -185q-109 -72 -268 -72q-158 0 -267 72q-97 65 -156 187q-50 104 -71 252q-18 119 -18 271q0 148 19 264q23 139 74 238q59 113 156 173q108 66 263 66q154 0 262 -66q97 -60 156 -173q52 -99 75 -238q19 -117 19 -264
q0 -154 -17 -273zM911 760q0 46 -1 83q-2 50 -6 94q-9 114 -34 196q-30 103 -85 159q-63 66 -159 66q-98 0 -163 -65q-55 -56 -85 -158q-23 -82 -32 -194l-4 -94l-1 -81q0 -44 1 -81q2 -51 6 -97q9 -120 34 -209q30 -112 85 -173q64 -73 159 -73q99 0 164 71q54 60 84 170
q24 87 32 207l4 97z" />
    <glyph glyph-name="P" unicode="P" horiz-adv-x="1101" 
d="M562 1491q449 0 449 -461q0 -491 -496 -491h-133v-539h-215v1491h395zM468 684q102 0 159 18q48 15 83 52q78 77 78 270q0 183 -66 256q-61 68 -221 68h-119v-664h86z" />
    <glyph glyph-name="Q" unicode="Q" 
d="M913 -334q-197 0 -292 88q-77 70 -126 244q-116 31 -196 110q-72 71 -116 182q-38 97 -55 228q-14 109 -14 248q0 148 19 264q23 139 74 238q59 113 156 173q108 66 263 66t263 -66q97 -59 156 -172q51 -99 74 -239q19 -115 19 -264q0 -134 -13 -240q-17 -137 -56 -240
q-47 -121 -126 -194q-91 -83 -223 -102q26 -107 68 -144q47 -42 157 -41v-139h-32zM910 847q-2 50 -5 94q-9 112 -34 194q-30 102 -85 158q-64 65 -160 65q-98 0 -162 -66q-55 -55 -85 -158q-24 -82 -32 -194q-4 -43 -5 -93l-1 -81q0 -115 10 -209q12 -119 40 -205
q32 -102 86 -157q61 -62 149 -62q99 0 164 71q55 60 84 171q24 88 32 208z" />
    <glyph glyph-name="R" unicode="R" horiz-adv-x="1136" 
d="M1101 0h-248l-313 645h-158v-645h-215v1491h420q217 0 323 -92q115 -99 115 -314q0 -318 -278 -405zM529 791q147 0 207 67q68 73 68 227q0 134 -59 199q-59 62 -199 62h-164v-555h147z" />
    <glyph glyph-name="S" unicode="S" horiz-adv-x="974" 
d="M835 1327q-71 15 -124 22q-65 9 -130 9q-113 0 -186 -52q-82 -58 -82 -165q0 -96 76 -167q32 -30 86 -65q21 -14 52 -32l27 -16q6 -4 15 -9l14 -8q74 -43 116 -72q62 -43 103 -88q101 -110 101 -262q0 -231 -143 -341q-127 -97 -367 -97q-151 0 -299 41v155
q163 -47 293 -47q129 0 208 54q91 62 91 186q0 105 -72 176q-32 32 -89 69q-37 24 -124 74q-71 42 -111 70q-60 42 -98 86q-96 108 -96 264q0 200 140 304q125 91 331 91q143 0 268 -30v-150z" />
    <glyph glyph-name="T" unicode="T" horiz-adv-x="1050" 
d="M1008 1335h-375v-1335h-215v1335h-375v156h965v-156z" />
    <glyph glyph-name="U" unicode="U" horiz-adv-x="1239" 
d="M1074 449q0 -465 -452 -465q-459 0 -459 471v1036h215v-1059q0 -303 242 -303q239 0 239 313v1049h215v-1042z" />
    <glyph glyph-name="V" unicode="V" horiz-adv-x="1095" 
d="M1077 1491l-418 -1491h-238l-403 1491h225l312 -1241l327 1241h195z" />
    <glyph glyph-name="W" unicode="W" horiz-adv-x="1796" 
d="M1760 1491l-352 -1491h-221l-289 1217l-319 -1217h-232l-313 1491h229l226 -1198l313 1198h231l283 -1198l254 1198h190z" />
    <glyph glyph-name="X" unicode="X" horiz-adv-x="1085" 
d="M1066 0h-243l-293 590l-301 -590h-207l406 756l-388 735h244l266 -537l271 537h207l-375 -700z" />
    <glyph glyph-name="Y" unicode="Y" horiz-adv-x="1005" 
d="M987 1491l-391 -959v-532h-216v530l-362 961h238l251 -735l277 735h203z" />
    <glyph glyph-name="Z" unicode="Z" horiz-adv-x="952" 
d="M887 1384l-586 -1234h577v-150h-827v106l586 1235h-549v150h799v-107z" />
    <glyph glyph-name="bracketleft" unicode="[" horiz-adv-x="667" 
d="M599 -334h-432v1917h432v-137h-221v-1643h221v-137z" />
    <glyph glyph-name="backslash" unicode="\" horiz-adv-x="778" 
d="M751 -334h-188l-537 1917h188z" />
    <glyph glyph-name="bracketright" unicode="]" horiz-adv-x="667" 
d="M499 -334h-432v137h221v1643h-221v137h432v-1917z" />
    <glyph glyph-name="asciicircum" unicode="^" horiz-adv-x="1120" 
d="M991 729h-192l-238 574l-239 -574h-193l332 762h198z" />
    <glyph glyph-name="underscore" unicode="_" horiz-adv-x="782" 
d="M778 -287h-772v181h772v-181z" />
    <glyph glyph-name="grave" unicode="`" horiz-adv-x="702" 
d="M544 1272h-176l-250 327h207z" />
    <glyph glyph-name="a" unicode="a" horiz-adv-x="1069" 
d="M758 168q-107 -184 -336 -184q-336 0 -336 340q0 127 59 210q51 72 149 110q81 32 200 43q48 4 106 6q41 1 104 1v109q0 73 -14 118q-12 35 -35 58q-55 55 -168 55q-71 0 -154 -16q-65 -12 -151 -37v149q180 50 344 50q202 0 301 -103q90 -93 90 -268v-809h-116zM606 567
q-142 0 -211 -43q-96 -59 -96 -198q0 -199 174 -199q114 0 175 76q56 70 56 186v178h-98z" />
    <glyph glyph-name="b" unicode="b" horiz-adv-x="1155" 
d="M272 0h-117v1583h213v-530q111 127 283 127q228 0 324 -189q40 -78 58 -191q15 -94 15 -216q0 -113 -22 -213q-24 -111 -72 -193q-115 -194 -340 -194q-192 0 -297 159zM362 509l4 -73q6 -86 25 -146q50 -163 196 -163q137 0 195 142q25 59 36 144q9 71 9 162
q0 213 -47 325q-56 136 -183 136q-136 0 -192 -139q-24 -59 -34 -147q-9 -74 -9 -175v-66z" />
    <glyph glyph-name="c" unicode="c" horiz-adv-x="876" 
d="M821 14q-109 -30 -236 -30q-259 0 -379 184q-53 81 -78 196q-22 103 -22 232q0 267 118 417q131 167 392 167q95 0 197 -25v-145q-79 24 -189 24q-165 0 -240 -148q-30 -60 -45 -143q-12 -70 -12 -151q0 -85 11 -155q14 -87 43 -150q74 -158 243 -158q62 0 99 4
q51 5 98 19v-138z" />
    <glyph glyph-name="d" unicode="d" horiz-adv-x="1155" 
d="M837 143q-95 -159 -315 -159q-126 0 -214 53q-78 49 -126 140q-42 80 -61 195q-15 94 -15 216q0 108 21 206q24 110 72 191q53 91 132 140q87 55 203 55q168 0 252 -101v504h213v-1583h-117zM792 659l-3 72q-7 85 -25 145q-50 160 -197 160q-146 0 -203 -160
q-22 -61 -30 -146q-7 -60 -7 -138q0 -76 6 -138q9 -87 29 -152q26 -80 70 -124q51 -51 127 -51q162 0 210 166q18 61 22 152q1 33 1 77v137z" />
    <glyph glyph-name="e" unicode="e" horiz-adv-x="1062" 
d="M917 33q-157 -49 -326 -49q-264 0 -384 173q-53 77 -78 190q-23 103 -23 237q0 115 23 215q26 111 76 192q119 189 352 189q134 0 222 -60q78 -53 121 -153q37 -84 50 -208q6 -51 8 -113q2 -48 2 -111h-629q0 -83 11 -147q14 -76 43 -130q71 -129 235 -129q69 0 150 15
q63 11 147 34v-145zM751 666q0 65 -4 113q-7 70 -24 121q-46 136 -166 136q-125 0 -181 -133q-21 -50 -33 -121q-8 -50 -12 -116h420z" />
    <glyph glyph-name="f" unicode="f" horiz-adv-x="647" 
d="M709 1421q-96 31 -158 31q-100 0 -130 -70q-22 -52 -22 -219h213v-143h-213v-1020h-213v1020h-141v143h141q0 108 11 176q13 85 45 138q72 122 270 122q101 0 197 -24v-154z" />
    <glyph glyph-name="g" unicode="g" horiz-adv-x="1144" 
d="M870 1163h119v-1108q0 -194 -124 -298q-115 -97 -313 -97q-90 0 -190 15q-85 13 -186 38v150l86 -20q48 -10 88 -17q99 -16 178 -16q158 0 210 88q23 39 31 103q7 49 7 136v23q-96 -131 -273 -131q-219 0 -318 176q-42 75 -62 181q-17 93 -17 210q0 119 21 217
q23 109 71 187q110 180 336 180q193 0 291 -158zM772 755q-9 80 -31 137q-53 144 -178 144q-138 0 -195 -143q-23 -57 -33 -138q-8 -65 -8 -149q0 -75 6 -133q8 -82 28 -142q54 -159 189 -159q140 0 193 137q21 56 30 140q7 65 7 161q0 80 -8 145z" />
    <glyph glyph-name="h" unicode="h" horiz-adv-x="1161" 
d="M1009 0h-213v793q0 109 -37 169q-45 74 -147 74q-125 0 -190 -101q-54 -85 -54 -216v-719h-213v1583h213v-532q111 129 287 129q354 0 354 -377v-803z" />
    <glyph glyph-name="i" unicode="i" horiz-adv-x="567" 
d="M293 1329q-121 0 -121 121t121 121q120 0 120 -121t-120 -121zM399 0h-213v1020h-133v143h346v-1163z" />
    <glyph glyph-name="j" unicode="j" horiz-adv-x="567" 
d="M294 1329q-121 0 -121 121t121 121q120 0 120 -121t-120 -121zM400 -27q0 -313 -317 -313q-90 0 -199 21v141q96 -19 162 -19q141 0 141 168v1049h-133v143h346v-1190z" />
    <glyph glyph-name="k" unicode="k" horiz-adv-x="1030" 
d="M1019 0h-252l-399 633v-633h-213v1583h213v-946l393 526h234l-400 -506z" />
    <glyph glyph-name="l" unicode="l" horiz-adv-x="524" 
d="M368 0h-213v1583h213v-1583z" />
    <glyph glyph-name="m" unicode="m" horiz-adv-x="1761" 
d="M317 991q105 189 325 189q109 0 184 -39q84 -44 122 -137q98 176 317 176q344 0 344 -371v-809h-213v803q0 105 -34 162q-43 71 -140 71q-121 0 -183 -103q-50 -85 -50 -214v-719h-213v803q0 103 -37 161q-44 72 -142 72q-118 0 -179 -104q-50 -86 -50 -213v-719h-213
v1163h119z" />
    <glyph glyph-name="n" unicode="n" horiz-adv-x="1161" 
d="M317 991q109 189 338 189q354 0 354 -371v-809h-213v774q0 121 -37 185q-45 77 -147 77q-125 0 -190 -101q-54 -85 -54 -216v-719h-213v1163h119z" />
    <glyph glyph-name="o" unicode="o" horiz-adv-x="1150" 
d="M938 157q-119 -173 -363 -173q-257 0 -374 189q-50 81 -74 197q-21 102 -21 230q0 253 107 405q123 175 362 175q242 0 363 -173q106 -152 106 -411q0 -284 -106 -439zM813 736q-12 80 -37 141q-65 159 -201 159q-145 0 -206 -156q-24 -59 -34 -140q-8 -62 -8 -134
q0 -77 7 -143q10 -90 33 -157q27 -82 74 -127q55 -52 134 -52q151 0 209 164q23 65 32 156q7 67 7 159q0 66 -10 130z" />
    <glyph glyph-name="p" unicode="p" horiz-adv-x="1146" 
d="M317 997q124 183 336 183q220 0 315 -187q39 -77 57 -187q15 -92 15 -208q0 -273 -115 -431q-131 -179 -393 -179q-74 0 -164 22v-344h-213v1497h119zM368 160q75 -29 162 -29q176 0 242 148q27 61 38 153q9 71 9 176q0 202 -46 306q-53 122 -169 122q-143 0 -199 -133
q-22 -52 -30 -127q-7 -55 -7 -131v-485z" />
    <glyph glyph-name="q" unicode="q" horiz-adv-x="1155" 
d="M882 1163h117v-1497h-213v424q-90 -106 -266 -106q-234 0 -335 189q-43 79 -62 192q-17 95 -17 217q0 113 21 212q24 111 72 193q113 193 341 193q200 0 297 -160zM792 654q-1 40 -3 73q-6 86 -24 146q-50 163 -198 163q-137 0 -195 -142q-25 -59 -36 -144
q-9 -71 -9 -162q0 -211 50 -325q59 -136 188 -136q144 0 193 139q21 58 29 147q5 65 5 175v66z" />
    <glyph glyph-name="r" unicode="r" horiz-adv-x="751" 
d="M323 969q99 205 338 205l23 -1q13 0 24 -2v-194q-18 1 -39 2h-37q-264 0 -264 -270v-709h-213v1163h119z" />
    <glyph glyph-name="s" unicode="s" horiz-adv-x="868" 
d="M753 993q-126 43 -244 43q-194 0 -194 -164q0 -64 57 -112q41 -35 145 -84q62 -30 99 -52q53 -32 87 -68q87 -88 87 -222q0 -182 -119 -271q-106 -79 -293 -79q-71 0 -150 11q-68 9 -149 28v153q88 -23 142 -34q79 -15 143 -15q215 0 215 178q0 76 -57 128
q-40 36 -146 87q-66 33 -97 51q-53 31 -88 64q-87 85 -87 217q0 157 116 247q105 81 267 81q147 0 266 -37v-150z" />
    <glyph glyph-name="t" unicode="t" horiz-adv-x="731" 
d="M704 20q-134 -36 -252 -36q-262 0 -262 266v770h-141v143h143l84 279h127v-279h283v-143h-283v-733q0 -156 125 -156q40 0 89 9l87 20v-140z" />
    <glyph glyph-name="u" unicode="u" horiz-adv-x="1161" 
d="M843 172q-109 -188 -338 -188q-354 0 -354 370v809h213v-774q0 -121 37 -185q45 -77 147 -77q125 0 190 101q54 85 54 216v719h213v-1163h-119z" />
    <glyph glyph-name="v" unicode="v" horiz-adv-x="978" 
d="M954 1163l-350 -1163h-242l-336 1163h217l254 -964l264 964h193z" />
    <glyph glyph-name="w" unicode="w" horiz-adv-x="1638" 
d="M1609 1163l-313 -1163h-250l-227 938l-244 -938h-246l-301 1163h215l225 -979l246 979h236l231 -981l240 981h188z" />
    <glyph glyph-name="x" unicode="x" horiz-adv-x="997" 
d="M981 0h-234l-258 455l-266 -455h-207l377 598l-346 565h233l228 -405l235 405h207l-344 -547z" />
    <glyph glyph-name="y" unicode="y" horiz-adv-x="978" 
d="M954 1163l-365 -1233q-81 -270 -315 -270q-84 0 -187 21v147q93 -18 168 -18q127 0 187 190h-88l-330 1163h219l254 -964l264 964h193z" />
    <glyph glyph-name="z" unicode="z" horiz-adv-x="937" 
d="M880 0h-825v131l561 883h-520v149h772v-129l-563 -884h575v-150z" />
    <glyph glyph-name="braceleft" unicode="{" horiz-adv-x="704" 
d="M636 -334h-162q-249 0 -249 277v440q0 84 -47 128q-39 37 -105 44v139q66 7 105 44q47 45 47 128v441q0 276 249 276h162v-137h-76q-125 0 -125 -146v-440q0 -187 -141 -235q141 -48 141 -236v-440q0 -146 125 -146h76v-137z" />
    <glyph glyph-name="bar" unicode="|" horiz-adv-x="778" 
d="M479 -334h-180v1917h180v-1917z" />
    <glyph glyph-name="braceright" unicode="}" horiz-adv-x="704" 
d="M630 555q-66 -7 -105 -44q-46 -44 -46 -128v-440q0 -277 -250 -277h-162v137h76q125 0 125 146v440q0 188 141 236q-141 48 -141 235v440q0 146 -125 146h-76v137h162q250 0 250 -276v-441q0 -83 46 -128q39 -37 105 -44v-139z" />
    <glyph glyph-name="asciitilde" unicode="~" horiz-adv-x="1120" 
d="M1048 741q-2 -2 -6 -9l-5 -10l-35 -59q-29 -44 -59 -71q-74 -68 -163 -68q-69 0 -158 62l-107 86q-20 15 -36 26q-73 50 -129 50q-62 0 -117 -46q-36 -28 -66 -73q-16 -25 -53 -92l-43 168q32 59 54 92q34 49 71 80q71 57 158 57q77 0 161 -62l94 -75q10 -9 18 -15
l38 -28q66 -43 119 -43q66 0 131 61q26 25 50 65q16 26 38 72z" />
    <glyph glyph-name="dieresis" unicode="&#xa8;" horiz-adv-x="1024" 
 />
    <glyph glyph-name="copyright" unicode="&#xa9;" horiz-adv-x="1785" 
d="M1465 133q-227 -227 -572 -227q-343 0 -570 223q-231 226 -231 578q0 348 230 575q228 225 571 225q345 0 572 -226q229 -228 229 -574q0 -347 -229 -574zM1359 1178q-183 188 -466 188q-287 0 -471 -192q-178 -187 -178 -467q0 -286 184 -473t465 -187q278 0 462 184
q187 187 187 476q0 284 -183 471zM1132 227q-45 -12 -96 -18q-41 -4 -88 -4q-231 0 -338 145q-94 127 -94 367q0 228 100 351q111 138 340 138q70 0 176 -26v-131q-98 32 -163 32q-148 0 -213 -95q-60 -87 -60 -265q0 -195 57 -287q65 -106 220 -106q63 0 159 26v-127z" />
    <glyph glyph-name="registered" unicode="&#xae;" horiz-adv-x="1785" 
d="M1465 133q-227 -227 -572 -227q-343 0 -570 223q-231 226 -231 578q0 348 230 575q228 225 571 225q345 0 572 -226q229 -228 229 -574q0 -347 -229 -574zM1359 1178q-183 188 -466 188q-287 0 -471 -192q-178 -187 -178 -467q0 -286 184 -473t465 -187q278 0 462 184
q187 187 187 476q0 284 -183 471zM1276 219h-187l-225 410h-106v-410h-164v975h311q313 0 313 -270q0 -212 -194 -275zM874 743q179 0 179 181q0 155 -166 155h-129v-336h116z" />
    <glyph glyph-name="acute" unicode="&#xb4;" horiz-adv-x="1024" 
 />
    <glyph glyph-name="paragraph" unicode="&#xb6;" horiz-adv-x="1220" 
d="M1156 1343h-153v-1677h-146v1677h-205v-1677h-145v1077q-426 0 -426 369q0 207 125 299q107 80 315 80h635v-148z" />
    <glyph glyph-name="Eth" unicode="&#xd0;" horiz-adv-x="1275" 
d="M612 1491q310 0 442 -214q58 -93 84 -229q23 -119 23 -276q0 -165 -22 -286q-25 -147 -84 -247q-66 -114 -177 -174q-122 -65 -301 -65h-354v707h-152v149h152v635h389zM548 145q170 0 250 74q86 79 118 246q13 66 18 148q3 60 3 143q0 174 -29 296q-37 152 -120 224
q-83 70 -225 70h-125v-490h295v-149h-295v-562h110z" />
    <glyph glyph-name="onequarter" unicode="&#xbc;" horiz-adv-x="1769" 
d="M1698 190h-105v-190h-168v190h-428v99l439 583h157v-565h105v-117zM1425 307v357l-260 -357h260zM1399 1491l-850 -1491h-178l850 1491h178zM717 625h-586v118h213v600l-213 -43v119l293 78h90v-754h203v-118z" />
    <glyph glyph-name="onehalf" unicode="&#xbd;" horiz-adv-x="1769" 
d="M1647 0h-601v63q0 130 89 237q35 41 87 84q35 28 93 69q79 54 108 83q45 45 45 91q0 127 -163 127q-88 0 -230 -43v125q143 38 256 38q143 0 224 -52q92 -60 92 -181q0 -86 -70 -162q-28 -30 -70 -63l-147 -105q-39 -30 -66 -55q-72 -68 -80 -133h433v-123zM1399 1491
l-850 -1491h-178l850 1491h178zM717 625h-586v118h213v600l-213 -43v119l293 78h90v-754h203v-118z" />
    <glyph glyph-name="threequarters" unicode="&#xbe;" horiz-adv-x="1769" 
d="M1698 190h-105v-190h-168v190h-428v99l438 583h158v-565h105v-117zM1425 307v357l-260 -357h260zM1399 1491l-850 -1491h-179l850 1491h179zM332 1378q-44 0 -96 -8l-113 -22v122q130 29 231 29q141 0 219 -47q92 -56 92 -174q0 -135 -153 -193q166 -42 166 -198
q0 -273 -355 -273q-104 0 -227 31v123l113 -21q64 -10 114 -10q181 0 181 146q0 91 -76 119q-61 22 -254 22v115q93 0 139 3q63 3 98 15q78 24 78 107q0 114 -157 114z" />
    <glyph glyph-name="Agrave" unicode="&#xc0;" horiz-adv-x="1157" 
d="M1134 0h-225l-98 344h-496l-98 -344h-197l442 1491h238zM772 489l-207 779l-211 -779h418zM673 1540h-154l-218 286h180z" />
    <glyph glyph-name="Aacute" unicode="&#xc1;" horiz-adv-x="1157" 
d="M1134 0h-225l-98 344h-496l-98 -344h-197l442 1491h238zM772 489l-207 779l-211 -779h418zM681 1826h181l-218 -286h-154z" />
    <glyph glyph-name="uni1EA2" unicode="&#x1ea2;" horiz-adv-x="1157" 
d="M1134 0h-225l-98 344h-496l-98 -344h-197l442 1491h238zM772 489l-207 779l-211 -779h418zM465 1886q41 13 64 17q25 5 49 5q68 0 105 -27q48 -36 48 -99q0 -37 -25 -76q-6 -10 -20 -26l-23 -25q-39 -43 -39 -67v-36h-107v40q0 34 20 68q5 9 20 26q5 7 19 21l16 18
q8 8 15 19q9 14 9 34q0 51 -47 51q-15 0 -35 -5q-13 -2 -69 -20v82z" />
    <glyph glyph-name="Atilde" unicode="&#xc3;" horiz-adv-x="1157" 
d="M1134 0h-225l-98 344h-496l-98 -344h-197l442 1491h238zM772 489l-207 779l-211 -779h418zM756 1751v16h91v-23q0 -70 -41 -122q-46 -58 -119 -58q-44 0 -80 16q-26 11 -54 35q-57 48 -85 48q-71 0 -71 -80v-20h-91v43q0 171 165 171q40 0 73 -15q23 -11 51 -35
q59 -50 94 -50q67 0 67 74z" />
    <glyph glyph-name="uni1EA0" unicode="&#x1ea0;" horiz-adv-x="1157" 
d="M1134 0h-225l-98 344h-496l-98 -344h-197l442 1491h238zM772 489l-207 779l-211 -779h418zM578 -271q-107 0 -107 107q0 106 107 106q105 0 105 -106q0 -107 -105 -107z" />
    <glyph glyph-name="Acircumflex" unicode="&#xc2;" horiz-adv-x="1157" 
d="M1134 0h-225l-98 344h-496l-98 -344h-197l442 1491h238zM772 489l-207 779l-211 -779h418zM831 1559h-130l-131 135l-131 -135h-129l177 249h167z" />
    <glyph glyph-name="uni1EA6" unicode="&#x1ea6;" horiz-adv-x="1157" 
d="M1134 0h-225l-98 344h-496l-98 -344h-197l442 1491h238zM772 489l-207 779l-211 -779h418zM950 1682h-154l-218 286h180zM831 1559h-129l-131 135l-131 -135h-130l177 249h167z" />
    <glyph glyph-name="uni1EA4" unicode="&#x1ea4;" horiz-adv-x="1157" 
d="M1134 0h-225l-98 344h-496l-98 -344h-197l442 1491h238zM772 489l-207 779l-211 -779h418zM959 1993h181l-218 -286h-154zM831 1559h-129l-131 135l-131 -135h-130l177 249h167z" />
    <glyph glyph-name="uni1EA8" unicode="&#x1ea8;" horiz-adv-x="1157" 
d="M1134 0h-225l-98 344h-496l-98 -344h-197l442 1491h238zM772 489l-207 779l-211 -779h418zM706 2047q41 13 64 17q25 5 49 5q68 0 105 -27q48 -36 48 -99q0 -37 -25 -76q-6 -10 -20 -26l-11 -13q-6 -6 30 -1q-24 9 -36 -5l-6 -6q-39 -43 -39 -67v-36h-107v40q0 34 20 68
q5 9 20 26q5 7 19 21l16 18q8 8 15 19q9 14 9 34q0 51 -47 51q-15 0 -35 -5q-13 -2 -69 -20v82zM831 1559h-129l-131 135l-131 -135h-130l177 249h167z" />
    <glyph glyph-name="uni1EAA" unicode="&#x1eaa;" horiz-adv-x="1157" 
d="M1134 0h-225l-98 344h-496l-98 -344h-197l442 1491h238zM772 489l-207 779l-211 -779h418zM793 2019v16h91v-23q0 -70 -41 -122q-46 -58 -119 -58q-44 0 -80 16q-26 11 -54 35q-57 48 -85 48q-71 0 -71 -80v-20h-91v43q0 171 165 171q40 0 73 -15q23 -11 51 -35
q59 -50 94 -50q67 0 67 74zM831 1559h-129l-131 135l-131 -135h-130l177 249h167z" />
    <glyph glyph-name="uni1EAC" unicode="&#x1eac;" horiz-adv-x="1157" 
d="M1134 0h-225l-98 344h-496l-98 -344h-197l442 1491h238zM772 489l-207 779l-211 -779h418zM578 -271q-107 0 -107 107q0 106 107 106q105 0 105 -106q0 -107 -105 -107zM831 1559h-129l-131 135l-131 -135h-130l177 249h167z" />
    <glyph glyph-name="Abreve" unicode="&#x102;" horiz-adv-x="1157" 
d="M1134 0h-225l-98 344h-496l-98 -344h-197l442 1491h238zM772 489l-207 779l-211 -779h418zM839 1810q-15 -55 -34 -95q-21 -47 -50 -80q-68 -76 -184 -76q-114 0 -183 75q-55 60 -85 176h139q13 -121 129 -121q118 0 127 121h141z" />
    <glyph glyph-name="uni1EB0" unicode="&#x1eb0;" horiz-adv-x="1157" 
d="M1134 0h-225l-98 344h-496l-98 -344h-197l442 1491h238zM772 489l-207 779l-211 -779h418zM671 1804h-154l-218 286h180zM839 1810q-15 -55 -33 -95q-22 -47 -51 -80q-68 -76 -183 -76t-183 75q-55 60 -85 176h139q13 -121 129 -121q117 0 126 121h141z" />
    <glyph glyph-name="uni1EAE" unicode="&#x1eae;" horiz-adv-x="1157" 
d="M1134 0h-225l-98 344h-496l-98 -344h-197l442 1491h238zM772 489l-207 779l-211 -779h418zM678 2087h181l-218 -286h-154zM839 1810q-15 -55 -33 -95q-22 -47 -51 -80q-68 -76 -183 -76t-183 75q-55 60 -85 176h139q13 -121 129 -121q117 0 126 121h141z" />
    <glyph glyph-name="uni1EB2" unicode="&#x1eb2;" horiz-adv-x="1157" 
d="M1134 0h-225l-98 344h-496l-98 -344h-197l442 1491h238zM772 489l-207 779l-211 -779h418zM467 2105q41 13 64 17q25 5 49 5q68 0 105 -27q48 -36 48 -99q0 -37 -25 -76q-6 -10 -43 -51q-39 -43 -39 -67v-36h-107v40q0 34 20 68q5 9 20 26q5 7 19 21l16 18q8 8 15 19
q9 14 9 34q0 51 -47 51q-15 0 -35 -5q-13 -2 -69 -20v82zM839 1810q-15 -55 -33 -95q-22 -47 -51 -80q-68 -76 -183 -76t-183 75q-55 60 -85 176h139q13 -121 129 -121q117 0 126 121h141z" />
    <glyph glyph-name="uni1EB4" unicode="&#x1eb4;" horiz-adv-x="1157" 
d="M1134 0h-225l-98 344h-496l-98 -344h-197l442 1491h238zM772 489l-207 779l-211 -779h418zM793 2019v16h91v-23q0 -70 -41 -122q-46 -58 -119 -58q-44 0 -80 16q-26 11 -54 35q-57 48 -85 48q-71 0 -71 -80v-20h-91v43q0 171 165 171q40 0 73 -15q23 -11 51 -35
q59 -50 94 -50q67 0 67 74zM839 1810q-15 -55 -33 -95q-22 -47 -51 -80q-68 -76 -183 -76t-183 75q-55 60 -85 176h139q13 -121 129 -121q117 0 126 121h141z" />
    <glyph glyph-name="uni1EB6" unicode="&#x1eb6;" horiz-adv-x="1157" 
d="M1134 0h-225l-98 344h-496l-98 -344h-197l442 1491h238zM772 489l-207 779l-211 -779h418zM578 -271q-107 0 -107 107q0 106 107 106q105 0 105 -106q0 -107 -105 -107zM831 1559h-129l-131 135l-131 -135h-130l177 249h167z" />
    <glyph glyph-name="Egrave" unicode="&#xc8;" horiz-adv-x="962" 
d="M902 0h-735v1491h729v-150h-514v-460h418v-150h-418v-581h520v-150zM672 1540h-154l-218 286h181z" />
    <glyph glyph-name="Eacute" unicode="&#xc9;" horiz-adv-x="962" 
d="M902 0h-735v1491h729v-150h-514v-460h418v-150h-418v-581h520v-150zM627 1826h181l-218 -286h-154z" />
    <glyph glyph-name="uni1EBA" unicode="&#x1eba;" horiz-adv-x="962" 
d="M902 0h-735v1491h729v-150h-514v-460h418v-150h-418v-581h520v-150zM435 1886q41 13 64 17q25 5 49 5q68 0 105 -27q48 -36 48 -99q0 -37 -25 -76q-6 -10 -20 -26l-23 -25q-39 -43 -39 -67v-36h-107v40q0 34 20 68q5 9 20 26q5 7 19 21l16 18q8 8 15 19q9 14 9 34
q0 51 -47 51q-15 0 -35 -5q-13 -2 -69 -20v82z" />
    <glyph glyph-name="uni1EBC" unicode="&#x1ebc;" horiz-adv-x="962" 
d="M902 0h-735v1491h729v-150h-514v-460h418v-150h-418v-581h520v-150zM736 1751v16h91v-23q0 -70 -41 -122q-46 -58 -119 -58q-44 0 -80 16q-26 11 -54 35q-57 48 -85 48q-71 0 -71 -80v-20h-91v43q0 171 165 171q40 0 73 -15q23 -11 51 -35q59 -50 94 -50q67 0 67 74z" />
    <glyph glyph-name="uni1EB8" unicode="&#x1eb8;" horiz-adv-x="962" 
d="M902 0h-735v1491h729v-150h-514v-460h418v-150h-418v-581h520v-150zM551 -271q-107 0 -107 107q0 106 107 106q105 0 105 -106q0 -107 -105 -107z" />
    <glyph glyph-name="Ecircumflex" unicode="&#xca;" horiz-adv-x="962" 
d="M902 0h-735v1491h729v-150h-514v-460h418v-150h-418v-581h520v-150zM779 1559h-130l-131 135l-131 -135h-129l177 249h167z" />
    <glyph glyph-name="uni1EC0" unicode="&#x1ec0;" horiz-adv-x="962" 
d="M902 0h-735v1491h729v-150h-514v-460h418v-150h-418v-581h520v-150zM903 1703h-154l-218 286h181zM779 1559h-130l-131 135l-131 -135h-129l177 249h167z" />
    <glyph glyph-name="uni1EBE" unicode="&#x1ebe;" horiz-adv-x="962" 
d="M902 0h-735v1491h729v-150h-514v-460h418v-150h-418v-581h520v-150zM921 1968h181l-218 -286h-154zM779 1559h-130l-131 135l-131 -135h-129l177 249h167z" />
    <glyph glyph-name="uni1EC2" unicode="&#x1ec2;" horiz-adv-x="962" 
d="M902 0h-735v1491h729v-150h-514v-460h418v-150h-418v-581h520v-150zM674 2021q41 13 64 17q25 5 49 5q68 0 105 -27q48 -36 48 -99q0 -37 -25 -76q-6 -10 -20 -26l-23 -25q-39 -43 -39 -67v-36h-107v40q0 34 20 68q5 9 20 26q5 7 19 21l16 18q8 8 15 19q9 14 9 34
q0 51 -47 51q-15 0 -35 -5q-13 -2 -69 -20v82zM779 1559h-130l-131 135l-131 -135h-129l177 249h167z" />
    <glyph glyph-name="uni1EC4" unicode="&#x1ec4;" horiz-adv-x="962" 
d="M902 0h-735v1491h729v-150h-514v-460h418v-150h-418v-581h520v-150zM762 2028v16h91v-23q0 -70 -41 -122q-46 -58 -119 -58q-44 0 -80 16q-26 11 -54 35q-57 48 -85 48q-71 0 -71 -80v-20h-91v43q0 171 165 171q40 0 73 -15q23 -11 51 -35q59 -50 94 -50q67 0 67 74z
M779 1559h-130l-131 135l-131 -135h-129l177 249h167z" />
    <glyph glyph-name="uni1EC6" unicode="&#x1ec6;" horiz-adv-x="962" 
d="M902 0h-735v1491h729v-150h-514v-460h418v-150h-418v-581h520v-150zM551 -271q-107 0 -107 107q0 106 107 106q105 0 105 -106q0 -107 -105 -107zM779 1559h-130l-131 135l-131 -135h-129l177 249h167z" />
    <glyph glyph-name="Igrave" unicode="&#xcc;" horiz-adv-x="634" 
d="M549 0h-463v150h123v1191h-123v150h463v-150h-125v-1191h125v-150zM400 1540h-154l-218 286h181z" />
    <glyph glyph-name="Iacute" unicode="&#xcd;" horiz-adv-x="634" 
d="M549 0h-463v150h123v1191h-123v150h463v-150h-125v-1191h125v-150zM410 1826h181l-218 -286h-154z" />
    <glyph glyph-name="uni1EC8" unicode="&#x1ec8;" horiz-adv-x="634" 
d="M549 0h-463v150h123v1191h-123v150h463v-150h-125v-1191h125v-150zM213 1886q41 13 64 17q25 5 49 5q68 0 105 -27q48 -36 48 -99q0 -37 -25 -76q-6 -10 -20 -26l-23 -25q-39 -43 -39 -67v-36h-107v40q0 34 20 68q5 9 20 26q5 7 19 21l16 18q8 8 15 19q9 14 9 34
q0 51 -47 51q-15 0 -35 -5q-13 -2 -69 -20v82z" />
    <glyph glyph-name="Itilde" unicode="&#x128;" horiz-adv-x="634" 
d="M549 0h-463v150h123v1191h-123v150h463v-150h-125v-1191h125v-150zM507 1751v16h91v-23q0 -70 -41 -122q-46 -58 -119 -58q-44 0 -80 16q-26 11 -54 35q-57 48 -85 48q-71 0 -71 -80v-20h-91v43q0 171 165 171q40 0 73 -15q23 -11 51 -35q59 -50 94 -50q67 0 67 74z" />
    <glyph glyph-name="uni1ECA" unicode="&#x1eca;" horiz-adv-x="634" 
d="M549 0h-463v150h123v1191h-123v150h463v-150h-125v-1191h125v-150zM318 -271q-107 0 -107 107q0 106 107 106q105 0 105 -106q0 -107 -105 -107z" />
    <glyph glyph-name="Ograve" unicode="&#xd2;" 
d="M1121 493q-22 -148 -72 -252q-58 -121 -155 -185q-109 -72 -268 -72q-158 0 -267 72q-97 65 -156 187q-50 104 -71 252q-18 119 -18 271q0 148 19 264q23 139 74 238q59 113 156 173q108 66 263 66q154 0 262 -66q97 -60 156 -173q52 -99 75 -238q19 -117 19 -264
q0 -154 -17 -273zM911 760q0 46 -1 83q-2 50 -6 94q-9 114 -34 196q-30 103 -85 159q-63 66 -159 66q-98 0 -163 -65q-55 -56 -85 -158q-23 -82 -32 -194l-4 -94l-1 -81q0 -44 1 -81q2 -51 6 -97q9 -120 34 -209q30 -112 85 -173q64 -73 159 -73q99 0 164 71q54 60 84 170
q24 87 32 207l4 97zM773 1540h-154l-218 286h181z" />
    <glyph glyph-name="Oacute" unicode="&#xd3;" 
d="M1121 493q-22 -148 -72 -252q-58 -121 -155 -185q-109 -72 -268 -72q-158 0 -267 72q-97 65 -156 187q-50 104 -71 252q-18 119 -18 271q0 148 19 264q23 139 74 238q59 113 156 173q108 66 263 66q154 0 262 -66q97 -60 156 -173q52 -99 75 -238q19 -117 19 -264
q0 -154 -17 -273zM911 760q0 46 -1 83q-2 50 -6 94q-9 114 -34 196q-30 103 -85 159q-63 66 -159 66q-98 0 -163 -65q-55 -56 -85 -158q-23 -82 -32 -194l-4 -94l-1 -81q0 -44 1 -81q2 -51 6 -97q9 -120 34 -209q30 -112 85 -173q64 -73 159 -73q99 0 164 71q54 60 84 170
q24 87 32 207l4 97zM694 1826h181l-218 -286h-154z" />
    <glyph glyph-name="uni1ECE" unicode="&#x1ece;" 
d="M1121 493q-22 -148 -72 -252q-58 -121 -155 -185q-109 -72 -268 -72q-158 0 -267 72q-97 65 -156 187q-50 104 -71 252q-18 119 -18 271q0 148 19 264q23 139 74 238q59 113 156 173q108 66 263 66q154 0 262 -66q97 -60 156 -173q52 -99 75 -238q19 -117 19 -264
q0 -154 -17 -273zM911 760q0 46 -1 83q-2 50 -6 94q-9 114 -34 196q-30 103 -85 159q-63 66 -159 66q-98 0 -163 -65q-55 -56 -85 -158q-23 -82 -32 -194l-4 -94l-1 -81q0 -44 1 -81q2 -51 6 -97q9 -120 34 -209q30 -112 85 -173q64 -73 159 -73q99 0 164 71q54 60 84 170
q24 87 32 207l4 97zM533 1886q41 13 64 17q25 5 49 5q68 0 105 -27q48 -36 48 -99q0 -37 -25 -76q-6 -10 -20 -26l-23 -25q-39 -43 -39 -67v-36h-107v40q0 34 20 68q5 9 20 26q5 7 19 21l16 18q8 8 15 19q9 14 9 34q0 51 -47 51q-15 0 -35 -5q-13 -2 -69 -20v82z" />
    <glyph glyph-name="Otilde" unicode="&#xd5;" 
d="M1121 493q-22 -148 -72 -252q-58 -121 -155 -185q-109 -72 -268 -72q-158 0 -267 72q-97 65 -156 187q-50 104 -71 252q-18 119 -18 271q0 148 19 264q23 139 74 238q59 113 156 173q108 66 263 66q154 0 262 -66q97 -60 156 -173q52 -99 75 -238q19 -117 19 -264
q0 -154 -17 -273zM911 760q0 46 -1 83q-2 50 -6 94q-9 114 -34 196q-30 103 -85 159q-63 66 -159 66q-98 0 -163 -65q-55 -56 -85 -158q-23 -82 -32 -194l-4 -94l-1 -81q0 -44 1 -81q2 -51 6 -97q9 -120 34 -209q30 -112 85 -173q64 -73 159 -73q99 0 164 71q54 60 84 170
q24 87 32 207l4 97zM827 1751v16h91v-23q0 -70 -41 -122q-46 -58 -119 -58q-44 0 -80 16q-26 11 -54 35q-57 48 -85 48q-71 0 -71 -80v-20h-91v43q0 171 165 171q40 0 73 -15q23 -11 51 -35q59 -50 94 -50q67 0 67 74z" />
    <glyph glyph-name="uni1ECC" unicode="&#x1ecc;" 
d="M1121 493q-22 -148 -72 -252q-58 -121 -155 -185q-109 -72 -268 -72q-158 0 -267 72q-97 65 -156 187q-50 104 -71 252q-18 119 -18 271q0 148 19 264q23 139 74 238q59 113 156 173q108 66 263 66q154 0 262 -66q97 -60 156 -173q52 -99 75 -238q19 -117 19 -264
q0 -154 -17 -273zM911 760q0 46 -1 83q-2 50 -6 94q-9 114 -34 196q-30 103 -85 159q-63 66 -159 66q-98 0 -163 -65q-55 -56 -85 -158q-23 -82 -32 -194l-4 -94l-1 -81q0 -44 1 -81q2 -51 6 -97q9 -120 34 -209q30 -112 85 -173q64 -73 159 -73q99 0 164 71q54 60 84 170
q24 87 32 207l4 97zM627 -271q-107 0 -107 107q0 106 107 106q105 0 105 -106q0 -107 -105 -107z" />
    <glyph glyph-name="Ocircumflex" unicode="&#xd4;" 
d="M1121 493q-22 -148 -72 -252q-58 -121 -155 -185q-109 -72 -268 -72q-158 0 -267 72q-97 65 -156 187q-50 104 -71 252q-18 119 -18 271q0 148 19 264q23 139 74 238q59 113 156 173q108 66 263 66q154 0 262 -66q97 -60 156 -173q52 -99 75 -238q19 -117 19 -264
q0 -154 -17 -273zM911 760q0 46 -1 83q-2 50 -6 94q-9 114 -34 196q-30 103 -85 159q-63 66 -159 66q-98 0 -163 -65q-55 -56 -85 -158q-23 -82 -32 -194l-4 -94l-1 -81q0 -44 1 -81q2 -51 6 -97q9 -120 34 -209q30 -112 85 -173q64 -73 159 -73q99 0 164 71q54 60 84 170
q24 87 32 207l4 97zM887 1559h-130l-131 135l-131 -135h-129l177 249h167z" />
    <glyph glyph-name="uni1ED2" unicode="&#x1ed2;" 
d="M1121 493q-22 -148 -72 -252q-58 -121 -155 -185q-109 -72 -268 -72q-158 0 -267 72q-97 65 -156 187q-50 104 -71 252q-18 119 -18 271q0 148 19 264q23 139 74 238q59 113 156 173q108 66 263 66q154 0 262 -66q97 -60 156 -173q52 -99 75 -238q19 -117 19 -264
q0 -154 -17 -273zM911 760q0 46 -1 83q-2 50 -6 94q-9 114 -34 196q-30 103 -85 159q-63 66 -159 66q-98 0 -163 -65q-55 -56 -85 -158q-23 -82 -32 -194l-4 -94l-1 -81q0 -44 1 -81q2 -51 6 -97q9 -120 34 -209q30 -112 85 -173q64 -73 159 -73q99 0 164 71q54 60 84 170
q24 87 32 207l4 97zM1003 1699h-154l-218 286h181zM887 1559h-130l-131 135l-131 -135h-129l177 249h167z" />
    <glyph glyph-name="uni1ED0" unicode="&#x1ed0;" 
d="M1121 493q-22 -148 -72 -252q-58 -121 -155 -185q-109 -72 -268 -72q-158 0 -267 72q-97 65 -156 187q-50 104 -71 252q-18 119 -18 271q0 148 19 264q23 139 74 238q59 113 156 173q108 66 263 66q154 0 262 -66q97 -60 156 -173q52 -99 75 -238q19 -117 19 -264
q0 -154 -17 -273zM911 760q0 46 -1 83q-2 50 -6 94q-9 114 -34 196q-30 103 -85 159q-63 66 -159 66q-98 0 -163 -65q-55 -56 -85 -158q-23 -82 -32 -194l-4 -94l-1 -81q0 -44 1 -81q2 -51 6 -97q9 -120 34 -209q30 -112 85 -173q64 -73 159 -73q99 0 164 71q54 60 84 170
q24 87 32 207l4 97zM1004 1997h181l-218 -286h-154zM887 1559h-130l-131 135l-131 -135h-129l177 249h167z" />
    <glyph glyph-name="uni1ED4" unicode="&#x1ed4;" 
d="M1121 493q-22 -148 -72 -252q-58 -121 -155 -185q-109 -72 -268 -72q-158 0 -267 72q-97 65 -156 187q-50 104 -71 252q-18 119 -18 271q0 148 19 264q23 139 74 238q59 113 156 173q108 66 263 66q154 0 262 -66q97 -60 156 -173q52 -99 75 -238q19 -117 19 -264
q0 -154 -17 -273zM911 760q0 46 -1 83q-2 50 -6 94q-9 114 -34 196q-30 103 -85 159q-63 66 -159 66q-98 0 -163 -65q-55 -56 -85 -158q-23 -82 -32 -194l-4 -94l-1 -81q0 -44 1 -81q2 -51 6 -97q9 -120 34 -209q30 -112 85 -173q64 -73 159 -73q99 0 164 71q54 60 84 170
q24 87 32 207l4 97zM756 2054q41 13 64 17q25 5 49 5q68 0 105 -27q48 -36 48 -99q0 -37 -25 -76q-6 -10 -20 -26l-23 -25q-39 -43 -39 -67v-36h-107v40q0 34 20 68q5 9 20 26q5 7 19 21l16 18q8 8 15 19q9 14 9 34q0 51 -47 51q-15 0 -35 -5q-13 -2 -69 -20v82zM887 1559
h-130l-131 135l-131 -135h-129l177 249h167z" />
    <glyph glyph-name="uni1ED6" unicode="&#x1ed6;" 
d="M1121 493q-22 -148 -72 -252q-58 -121 -155 -185q-109 -72 -268 -72q-158 0 -267 72q-97 65 -156 187q-50 104 -71 252q-18 119 -18 271q0 148 19 264q23 139 74 238q59 113 156 173q108 66 263 66q154 0 262 -66q97 -60 156 -173q52 -99 75 -238q19 -117 19 -264
q0 -154 -17 -273zM911 760q0 46 -1 83q-2 50 -6 94q-9 114 -34 196q-30 103 -85 159q-63 66 -159 66q-98 0 -163 -65q-55 -56 -85 -158q-23 -82 -32 -194l-4 -94l-1 -81q0 -44 1 -81q2 -51 6 -97q9 -120 34 -209q30 -112 85 -173q64 -73 159 -73q99 0 164 71q54 60 84 170
q24 87 32 207l4 97zM864 2027v16h91v-23q0 -70 -41 -122q-46 -58 -119 -58q-44 0 -80 16q-26 11 -54 35q-57 48 -85 48q-71 0 -71 -80v-20h-91v43q0 171 165 171q40 0 73 -15q23 -11 51 -35q59 -50 94 -50q67 0 67 74zM887 1559h-130l-131 135l-131 -135h-129l177 249h167z
" />
    <glyph glyph-name="uni1ED8" unicode="&#x1ed8;" 
d="M1121 493q-22 -148 -72 -252q-58 -121 -155 -185q-109 -72 -268 -72q-158 0 -267 72q-97 65 -156 187q-50 104 -71 252q-18 119 -18 271q0 148 19 264q23 139 74 238q59 113 156 173q108 66 263 66q154 0 262 -66q97 -60 156 -173q52 -99 75 -238q19 -117 19 -264
q0 -154 -17 -273zM911 760q0 46 -1 83q-2 50 -6 94q-9 114 -34 196q-30 103 -85 159q-63 66 -159 66q-98 0 -163 -65q-55 -56 -85 -158q-23 -82 -32 -194l-4 -94l-1 -81q0 -44 1 -81q2 -51 6 -97q9 -120 34 -209q30 -112 85 -173q64 -73 159 -73q99 0 164 71q54 60 84 170
q24 87 32 207l4 97zM627 -271q-107 0 -107 107q0 106 107 106q105 0 105 -106q0 -107 -105 -107zM887 1559h-130l-131 135l-131 -135h-129l177 249h167z" />
    <glyph glyph-name="Ugrave" unicode="&#xd9;" horiz-adv-x="1239" 
d="M1074 449q0 -465 -452 -465q-459 0 -459 471v1036h215v-1059q0 -303 242 -303q239 0 239 313v1049h215v-1042zM773 1540h-154l-218 286h181z" />
    <glyph glyph-name="Uacute" unicode="&#xda;" horiz-adv-x="1239" 
d="M1074 449q0 -465 -452 -465q-459 0 -459 471v1036h215v-1059q0 -303 242 -303q239 0 239 313v1049h215v-1042zM664 1826h181l-218 -286h-154z" />
    <glyph glyph-name="uni1EE6" unicode="&#x1ee6;" horiz-adv-x="1239" 
d="M1074 449q0 -465 -452 -465q-459 0 -459 471v1036h215v-1059q0 -303 242 -303q239 0 239 313v1049h215v-1042zM513 1886q41 13 64 17q25 5 49 5q68 0 105 -27q48 -36 48 -99q0 -37 -25 -76q-6 -10 -20 -26l-23 -25q-39 -43 -39 -67v-36h-107v40q0 34 20 68q5 9 20 26
q5 7 19 21l16 18q8 8 15 19q9 14 9 34q0 51 -47 51q-15 0 -35 -5q-13 -2 -69 -20v82z" />
    <glyph glyph-name="Utilde" unicode="&#x168;" horiz-adv-x="1239" 
d="M1074 449q0 -465 -452 -465q-459 0 -459 471v1036h215v-1059q0 -303 242 -303q239 0 239 313v1049h215v-1042zM827 1751v16h91v-23q0 -70 -41 -122q-46 -58 -119 -58q-44 0 -80 16q-26 11 -54 35q-57 48 -85 48q-71 0 -71 -80v-20h-91v43q0 171 165 171q40 0 73 -15
q23 -11 51 -35q59 -50 94 -50q67 0 67 74z" />
    <glyph glyph-name="uni1EE4" unicode="&#x1ee4;" horiz-adv-x="1239" 
d="M1074 449q0 -465 -452 -465q-459 0 -459 471v1036h215v-1059q0 -303 242 -303q239 0 239 313v1049h215v-1042zM620 -271q-107 0 -107 107q0 106 107 106q105 0 105 -106q0 -107 -105 -107z" />
    <glyph glyph-name="Uhorn" unicode="&#x1af;" horiz-adv-x="1239" 
d="M1074 449q0 -465 -452 -465q-459 0 -459 471v1036h215v-1059q0 -303 242 -303q239 0 239 313v1049h215v-1042zM1309 1492q-3 -182 -69.5 -264.5t-254.5 -97.5l-9 163q161 20 147 199h186z" />
    <glyph glyph-name="uni1EEA" unicode="&#x1eea;" horiz-adv-x="1239" 
d="M773 1540h-154l-218 286h181zM1074 1142v-693q0 -465 -452 -465q-459 0 -459 471v1036h215v-1059q0 -303 242 -303q239 0 239 313v1049h215v-159q57 50 48 160h186q-3 -182 -69 -264q-49 -62 -165 -86z" />
    <glyph glyph-name="uni1EE8" unicode="&#x1ee8;" horiz-adv-x="1239" 
d="M664 1826h181l-218 -286h-154zM1074 1142v-693q0 -465 -452 -465q-459 0 -459 471v1036h215v-1059q0 -303 242 -303q239 0 239 313v1049h215v-159q57 50 48 160h186q-3 -182 -69 -264q-49 -62 -165 -86z" />
    <glyph glyph-name="uni1EEC" unicode="&#x1eec;" horiz-adv-x="1239" 
d="M513 1886q41 13 64 17q25 5 49 5q68 0 105 -27q48 -36 48 -99q0 -37 -25 -76q-6 -10 -20 -26l-23 -25q-39 -43 -39 -67v-36h-107v40q0 34 20 68q5 9 20 26q5 7 19 21l16 18q8 8 15 19q9 14 9 34q0 51 -47 51q-15 0 -35 -5q-13 -2 -69 -20v82zM1074 1142v-693
q0 -465 -452 -465q-459 0 -459 471v1036h215v-1059q0 -303 242 -303q239 0 239 313v1049h215v-159q57 50 48 160h186q-3 -182 -69 -264q-49 -62 -165 -86z" />
    <glyph glyph-name="uni1EEE" unicode="&#x1eee;" horiz-adv-x="1239" 
d="M827 1751v16h91v-23q0 -70 -41 -122q-46 -58 -119 -58q-44 0 -80 16q-26 11 -54 35q-57 48 -85 48q-71 0 -71 -80v-20h-91v43q0 171 165 171q40 0 73 -15q23 -11 51 -35q59 -50 94 -50q67 0 67 74zM1074 1142v-693q0 -465 -452 -465q-459 0 -459 471v1036h215v-1059
q0 -303 242 -303q239 0 239 313v1049h215v-159q57 50 48 160h186q-3 -182 -69 -264q-49 -62 -165 -86z" />
    <glyph glyph-name="uni1EF0" unicode="&#x1ef0;" horiz-adv-x="1239" 
d="M620 -271q-107 0 -107 107q0 106 107 106q105 0 105 -106q0 -107 -105 -107zM1074 1142v-693q0 -465 -452 -465q-459 0 -459 471v1036h215v-1059q0 -303 242 -303q239 0 239 313v1049h215v-159q57 50 48 160h186q-3 -182 -69 -264q-49 -62 -165 -86z" />
    <glyph glyph-name="Ohorn" unicode="&#x1a0;" 
d="M1121 493q-22 -148 -72 -252q-58 -121 -155 -185q-109 -72 -268 -72q-158 0 -267 72q-97 65 -156 187q-50 104 -71 252q-18 119 -18 271q0 148 19 264q23 139 74 238q59 113 156 173q108 66 263 66q154 0 262 -66q97 -60 156 -173q52 -99 75 -238q19 -117 19 -264
q0 -154 -17 -273zM911 760q0 46 -1 83q-2 50 -6 94q-9 114 -34 196q-30 103 -85 159q-63 66 -159 66q-98 0 -163 -65q-55 -56 -85 -158q-23 -82 -32 -194l-4 -94l-1 -81q0 -44 1 -81q2 -51 6 -97q9 -120 34 -209q30 -112 85 -173q64 -73 159 -73q99 0 164 71q54 60 84 170
q24 87 32 207l4 97zM1247 1492q-3 -182 -69.5 -264.5t-254.5 -97.5l-9 163q161 20 147 199h186z" />
    <glyph glyph-name="uni1EDC" unicode="&#x1edc;" 
d="M910 760q0 46 -1 83q-1 50 -5 94q-9 114 -34 196q-31 103 -85 159q-64 66 -159 66q-99 0 -163 -65q-55 -56 -85 -158q-24 -82 -32 -194l-4 -94l-1 -81q0 -44 1 -81q2 -51 5 -97q10 -120 34 -209q31 -112 85 -173q64 -73 160 -73q99 0 163 71q55 60 85 170q24 87 32 207
l4 97v82zM773 1540h-154l-218 286h181zM1086 1164q20 -61 32 -134q20 -117 20 -264q0 -154 -18 -273q-21 -148 -71 -252q-58 -121 -155 -185q-109 -72 -268 -72t-268 72q-97 65 -155 187q-50 104 -72 252q-17 119 -17 271q0 148 19 264q23 139 74 238q59 113 156 173
q108 66 263 66q154 0 262 -66q69 -43 119 -113q63 50 53 164h186q-3 -182 -69 -264q-31 -40 -91 -64z" />
    <glyph glyph-name="uni1EDA" unicode="&#x1eda;" 
d="M910 760q0 46 -1 83q-1 50 -5 94q-9 114 -34 196q-31 103 -85 159q-64 66 -159 66q-99 0 -163 -65q-55 -56 -85 -158q-24 -82 -32 -194l-4 -94l-1 -81q0 -44 1 -81q2 -51 5 -97q10 -120 34 -209q31 -112 85 -173q64 -73 160 -73q99 0 163 71q55 60 85 170q24 87 32 207
l4 97v82zM694 1826h181l-218 -286h-154zM1086 1164q20 -61 32 -134q20 -117 20 -264q0 -154 -18 -273q-21 -148 -71 -252q-58 -121 -155 -185q-109 -72 -268 -72t-268 72q-97 65 -155 187q-50 104 -72 252q-17 119 -17 271q0 148 19 264q23 139 74 238q59 113 156 173
q108 66 263 66q154 0 262 -66q69 -43 119 -113q63 50 53 164h186q-3 -182 -69 -264q-31 -40 -91 -64z" />
    <glyph glyph-name="uni1EDE" unicode="&#x1ede;" 
d="M910 760q0 46 -1 83q-1 50 -5 94q-9 114 -34 196q-31 103 -85 159q-64 66 -159 66q-99 0 -163 -65q-55 -56 -85 -158q-24 -82 -32 -194l-4 -94l-1 -81q0 -44 1 -81q2 -51 5 -97q10 -120 34 -209q31 -112 85 -173q64 -73 160 -73q99 0 163 71q55 60 85 170q24 87 32 207
l4 97v82zM533 1886q41 13 64 17q25 5 49 5q68 0 105 -27q48 -36 48 -99q0 -37 -25 -76q-6 -10 -20 -26l-23 -25q-39 -43 -39 -67v-36h-107v40q0 34 20 68q5 9 20 26q5 7 19 21l16 18q8 8 15 19q9 14 9 34q0 51 -47 51q-15 0 -35 -5q-13 -2 -69 -20v82zM1086 1164
q20 -61 32 -134q20 -117 20 -264q0 -154 -18 -273q-21 -148 -71 -252q-58 -121 -155 -185q-109 -72 -268 -72t-268 72q-97 65 -155 187q-50 104 -72 252q-17 119 -17 271q0 148 19 264q23 139 74 238q59 113 156 173q108 66 263 66q154 0 262 -66q69 -43 119 -113
q63 50 53 164h186q-3 -182 -69 -264q-31 -40 -91 -64z" />
    <glyph glyph-name="uni1EE0" unicode="&#x1ee0;" 
d="M910 760q0 46 -1 83q-1 50 -5 94q-9 114 -34 196q-31 103 -85 159q-64 66 -159 66q-99 0 -163 -65q-55 -56 -85 -158q-24 -82 -32 -194l-4 -94l-1 -81q0 -44 1 -81q2 -51 5 -97q10 -120 34 -209q31 -112 85 -173q64 -73 160 -73q99 0 163 71q55 60 85 170q24 87 32 207
l4 97v82zM827 1751v16h91v-23q0 -70 -41 -122q-46 -58 -119 -58q-44 0 -80 16q-26 11 -54 35q-57 48 -85 48q-71 0 -71 -80v-20h-91v43q0 171 165 171q40 0 73 -15q23 -11 51 -35q59 -50 94 -50q67 0 67 74zM1086 1164q20 -61 32 -134q20 -117 20 -264q0 -154 -18 -273
q-21 -148 -71 -252q-58 -121 -155 -185q-109 -72 -268 -72t-268 72q-97 65 -155 187q-50 104 -72 252q-17 119 -17 271q0 148 19 264q23 139 74 238q59 113 156 173q108 66 263 66q154 0 262 -66q69 -43 119 -113q63 50 53 164h186q-3 -182 -69 -264q-31 -40 -91 -64z" />
    <glyph glyph-name="uni1EE2" unicode="&#x1ee2;" 
d="M910 760q0 46 -1 83q-1 50 -5 94q-9 114 -34 196q-31 103 -85 159q-64 66 -159 66q-99 0 -163 -65q-55 -56 -85 -158q-24 -82 -32 -194l-4 -94l-1 -81q0 -44 1 -81q2 -51 5 -97q10 -120 34 -209q31 -112 85 -173q64 -73 160 -73q99 0 163 71q55 60 85 170q24 87 32 207
l4 97v82zM627 -271q-107 0 -107 107q0 106 107 106q105 0 105 -106q0 -107 -105 -107zM1086 1164q20 -61 32 -134q20 -117 20 -264q0 -154 -18 -273q-21 -148 -71 -252q-58 -121 -155 -185q-109 -72 -268 -72t-268 72q-97 65 -155 187q-50 104 -72 252q-17 119 -17 271
q0 148 19 264q23 139 74 238q59 113 156 173q108 66 263 66q154 0 262 -66q69 -43 119 -113q63 50 53 164h186q-3 -182 -69 -264q-31 -40 -91 -64z" />
    <glyph glyph-name="Ygrave" unicode="&#x1ef2;" horiz-adv-x="1005" 
d="M987 1491l-391 -959v-532h-216v530l-362 961h238l251 -735l277 735h203zM640 1540h-154l-218 286h181z" />
    <glyph glyph-name="Yacute" unicode="&#xdd;" horiz-adv-x="1005" 
d="M987 1491l-391 -959v-532h-216v530l-362 961h238l251 -735l277 735h203zM611 1826h181l-218 -286h-154z" />
    <glyph glyph-name="uni1EF6" unicode="&#x1ef6;" horiz-adv-x="1005" 
d="M987 1491l-391 -959v-532h-216v530l-362 961h238l251 -735l277 735h203zM418 1886q41 13 64 17q25 5 49 5q68 0 105 -27q48 -36 48 -99q0 -37 -25 -76q-6 -10 -20 -26l-23 -25q-39 -43 -39 -67v-36h-107v40q0 34 20 68q5 9 20 26q5 7 19 21l16 18q8 8 15 19q9 14 9 34
q0 51 -47 51q-15 0 -35 -5q-13 -2 -69 -20v82z" />
    <glyph glyph-name="uni1EF8" unicode="&#x1ef8;" horiz-adv-x="1005" 
d="M987 1491l-391 -959v-532h-216v530l-362 961h238l251 -735l277 735h203zM730 1751v16h91v-23q0 -70 -41 -122q-46 -58 -119 -58q-44 0 -80 16q-26 11 -54 35q-57 48 -85 48q-71 0 -71 -80v-20h-91v43q0 171 165 171q40 0 73 -15q23 -11 51 -35q59 -50 94 -50q67 0 67 74z
" />
    <glyph glyph-name="uni1EF4" unicode="&#x1ef4;" horiz-adv-x="1005" 
d="M987 1491l-391 -959v-532h-216v530l-362 961h238l251 -735l277 735h203zM493 -271q-107 0 -107 107q0 106 107 106q105 0 105 -106q0 -107 -105 -107z" />
    <glyph glyph-name="agrave" unicode="&#xe0;" horiz-adv-x="1069" 
d="M758 168q-107 -184 -336 -184q-336 0 -336 340q0 127 59 210q51 72 149 110q81 32 200 43q48 4 106 6q41 1 104 1v109q0 73 -14 118q-12 35 -35 58q-55 55 -168 55q-71 0 -154 -16q-65 -12 -151 -37v149q180 50 344 50q202 0 301 -103q90 -93 90 -268v-809h-116zM606 567
q-142 0 -211 -43q-96 -59 -96 -198q0 -199 174 -199q114 0 175 76q56 70 56 186v178h-98zM640 1246h-154l-218 286h181z" />
    <glyph glyph-name="aacute" unicode="&#xe1;" horiz-adv-x="1069" 
d="M758 168q-107 -184 -336 -184q-336 0 -336 340q0 127 59 210q51 72 149 110q81 32 200 43q48 4 106 6q41 1 104 1v109q0 73 -14 118q-12 35 -35 58q-55 55 -168 55q-71 0 -154 -16q-65 -12 -151 -37v149q180 50 344 50q202 0 301 -103q90 -93 90 -268v-809h-116zM606 567
q-142 0 -211 -43q-96 -59 -96 -198q0 -199 174 -199q114 0 175 76q56 70 56 186v178h-98zM601 1532h181l-218 -286h-154z" />
    <glyph glyph-name="uni1EA3" unicode="&#x1ea3;" horiz-adv-x="1069" 
d="M758 168q-107 -184 -336 -184q-336 0 -336 340q0 127 59 210q51 72 149 110q81 32 200 43q48 4 106 6q41 1 104 1v109q0 73 -14 118q-12 35 -35 58q-55 55 -168 55q-71 0 -154 -16q-65 -12 -151 -37v149q180 50 344 50q202 0 301 -103q90 -93 90 -268v-809h-116zM606 567
q-142 0 -211 -43q-96 -59 -96 -198q0 -199 174 -199q114 0 175 76q56 70 56 186v178h-98zM418 1575q41 13 64 17q25 5 49 5q68 0 105 -27q48 -36 48 -99q0 -37 -25 -76q-6 -10 -20 -26l-23 -25q-39 -43 -39 -67v-36h-107v40q0 34 20 68q5 9 20 26q5 7 19 21l16 18q8 8 15 19
q9 14 9 34q0 51 -47 51q-15 0 -35 -5q-13 -2 -69 -20v82z" />
    <glyph glyph-name="atilde" unicode="&#xe3;" horiz-adv-x="1069" 
d="M758 168q-107 -184 -336 -184q-336 0 -336 340q0 127 59 210q51 72 149 110q81 32 200 43q48 4 106 6q41 1 104 1v109q0 73 -14 118q-12 35 -35 58q-55 55 -168 55q-71 0 -154 -16q-65 -12 -151 -37v149q180 50 344 50q202 0 301 -103q90 -93 90 -268v-809h-116zM606 567
q-142 0 -211 -43q-96 -59 -96 -198q0 -199 174 -199q114 0 175 76q56 70 56 186v178h-98zM710 1438v16h91v-23q0 -70 -41 -122q-46 -58 -119 -58q-44 0 -80 16q-26 11 -54 35q-57 48 -85 48q-71 0 -71 -80v-20h-91v43q0 171 165 171q40 0 73 -15q23 -11 51 -35
q59 -50 94 -50q67 0 67 74z" />
    <glyph glyph-name="uni1EA1" unicode="&#x1ea1;" horiz-adv-x="1069" 
d="M758 168q-107 -184 -336 -184q-336 0 -336 340q0 127 59 210q51 72 149 110q81 32 200 43q48 4 106 6q41 1 104 1v109q0 73 -14 118q-12 35 -35 58q-55 55 -168 55q-71 0 -154 -16q-65 -12 -151 -37v149q180 50 344 50q202 0 301 -103q90 -93 90 -268v-809h-116zM606 567
q-142 0 -211 -43q-96 -59 -96 -198q0 -199 174 -199q114 0 175 76q56 70 56 186v178h-98zM503 -271q-107 0 -107 107q0 106 107 106q105 0 105 -106q0 -107 -105 -107z" />
    <glyph glyph-name="acircumflex" unicode="&#xe2;" horiz-adv-x="1069" 
d="M758 168q-107 -184 -336 -184q-336 0 -336 340q0 127 59 210q51 72 149 110q81 32 200 43q48 4 106 6q41 1 104 1v109q0 73 -14 118q-12 35 -35 58q-55 55 -168 55q-71 0 -154 -16q-65 -12 -151 -37v149q180 50 344 50q202 0 301 -103q90 -93 90 -268v-809h-116zM606 567
q-142 0 -211 -43q-96 -59 -96 -198q0 -199 174 -199q114 0 175 76q56 70 56 186v178h-98zM774 1246h-130l-131 135l-131 -135h-129l177 249h167z" />
    <glyph glyph-name="uni1EA7" unicode="&#x1ea7;" horiz-adv-x="1069" 
d="M758 168q-107 -184 -336 -184q-336 0 -336 340q0 127 59 210q51 72 149 110q81 32 200 43q48 4 106 6q41 1 104 1v109q0 73 -14 118q-12 35 -35 58q-55 55 -168 55q-71 0 -154 -16q-65 -12 -151 -37v149q180 50 344 50q202 0 301 -103q90 -93 90 -268v-809h-116zM606 567
q-142 0 -211 -43q-96 -59 -96 -198q0 -199 174 -199q114 0 175 76q56 70 56 186v178h-98zM885 1390h-154l-218 286h181zM775 1246h-130l-131 135l-131 -135h-129l177 249h167z" />
    <glyph glyph-name="uni1EA5" unicode="&#x1ea5;" horiz-adv-x="1069" 
d="M758 168q-107 -184 -336 -184q-336 0 -336 340q0 127 59 210q51 72 149 110q81 32 200 43q48 4 106 6q41 1 104 1v109q0 73 -14 118q-12 35 -35 58q-55 55 -168 55q-71 0 -154 -16q-65 -12 -151 -37v149q180 50 344 50q202 0 301 -103q90 -93 90 -268v-809h-116zM606 567
q-142 0 -211 -43q-96 -59 -96 -198q0 -199 174 -199q114 0 175 76q56 70 56 186v178h-98zM863 1697h181l-218 -286h-154zM775 1246h-130l-131 135l-131 -135h-129l177 249h167z" />
    <glyph glyph-name="uni1EA9" unicode="&#x1ea9;" horiz-adv-x="1069" 
d="M758 168q-107 -184 -336 -184q-336 0 -336 340q0 127 59 210q51 72 149 110q81 32 200 43q48 4 106 6q41 1 104 1v109q0 73 -14 118q-12 35 -35 58q-55 55 -168 55q-71 0 -154 -16q-65 -12 -151 -37v149q180 50 344 50q202 0 301 -103q90 -93 90 -268v-809h-116zM606 567
q-142 0 -211 -43q-96 -59 -96 -198q0 -199 174 -199q114 0 175 76q56 70 56 186v178h-98zM634 1755q41 13 64 17q25 5 49 5q68 0 105 -27q48 -36 48 -99q0 -37 -25 -76q-6 -10 -20 -26l-23 -25q-39 -43 -39 -67v-36h-107v40q0 34 20 68q5 9 20 26q5 7 19 21l16 18q8 8 15 19
q9 14 9 34q0 51 -47 51q-15 0 -35 -5q-13 -2 -69 -20v82zM775 1246h-130l-131 135l-131 -135h-129l177 249h167z" />
    <glyph glyph-name="uni1EAB" unicode="&#x1eab;" horiz-adv-x="1069" 
d="M758 168q-107 -184 -336 -184q-336 0 -336 340q0 127 59 210q51 72 149 110q81 32 200 43q48 4 106 6q41 1 104 1v109q0 73 -14 118q-12 35 -35 58q-55 55 -168 55q-71 0 -154 -16q-65 -12 -151 -37v149q180 50 344 50q202 0 301 -103q90 -93 90 -268v-809h-116zM606 567
q-142 0 -211 -43q-96 -59 -96 -198q0 -199 174 -199q114 0 175 76q56 70 56 186v178h-98zM738 1707v16h91v-23q0 -70 -41 -122q-46 -58 -119 -58q-44 0 -80 16q-26 11 -54 35q-57 48 -85 48q-71 0 -71 -80v-20h-91v43q0 171 165 171q40 0 73 -15q23 -11 51 -35
q59 -50 94 -50q67 0 67 74zM775 1246h-130l-131 135l-131 -135h-129l177 249h167z" />
    <glyph glyph-name="uni1EAD" unicode="&#x1ead;" horiz-adv-x="1069" 
d="M758 168q-107 -184 -336 -184q-336 0 -336 340q0 127 59 210q51 72 149 110q81 32 200 43q48 4 106 6q41 1 104 1v109q0 73 -14 118q-12 35 -35 58q-55 55 -168 55q-71 0 -154 -16q-65 -12 -151 -37v149q180 50 344 50q202 0 301 -103q90 -93 90 -268v-809h-116zM606 567
q-142 0 -211 -43q-96 -59 -96 -198q0 -199 174 -199q114 0 175 76q56 70 56 186v178h-98zM503 -271q-107 0 -107 107q0 106 107 106q105 0 105 -106q0 -107 -105 -107zM775 1246h-130l-131 135l-131 -135h-129l177 249h167z" />
    <glyph glyph-name="abreve" unicode="&#x103;" horiz-adv-x="1069" 
d="M758 168q-107 -184 -336 -184q-336 0 -336 340q0 127 59 210q51 72 149 110q81 32 200 43q48 4 106 6q41 1 104 1v109q0 73 -14 118q-12 35 -35 58q-55 55 -168 55q-71 0 -154 -16q-65 -12 -151 -37v149q180 50 344 50q202 0 301 -103q90 -93 90 -268v-809h-116zM606 567
q-142 0 -211 -43q-96 -59 -96 -198q0 -199 174 -199q114 0 175 76q56 70 56 186v178h-98zM777 1489q-15 -55 -34 -95q-21 -47 -50 -80q-68 -76 -184 -76q-114 0 -183 75q-55 60 -85 176h139q13 -121 129 -121q118 0 127 121h141z" />
    <glyph glyph-name="uni1EB1" unicode="&#x1eb1;" horiz-adv-x="1069" 
d="M758 168q-107 -184 -336 -184q-336 0 -336 340q0 127 59 210q51 72 149 110q81 32 200 43q48 4 106 6q41 1 104 1v109q0 73 -14 118q-12 35 -35 58q-55 55 -168 55q-71 0 -154 -16q-65 -12 -151 -37v149q180 50 344 50q202 0 301 -103q90 -93 90 -268v-809h-116zM606 567
q-142 0 -211 -43q-96 -59 -96 -198q0 -199 174 -199q114 0 175 76q56 70 56 186v178h-98zM609 1488h-154l-218 286h181zM777 1489q-15 -55 -34 -95q-21 -47 -50 -80q-68 -76 -184 -76q-114 0 -183 75q-55 60 -85 176h139q13 -121 129 -121q118 0 127 121h141z" />
    <glyph glyph-name="uni1EAF" unicode="&#x1eaf;" horiz-adv-x="1069" 
d="M758 168q-107 -184 -336 -184q-336 0 -336 340q0 127 59 210q51 72 149 110q81 32 200 43q48 4 106 6q41 1 104 1v109q0 73 -14 118q-12 35 -35 58q-55 55 -168 55q-71 0 -154 -16q-65 -12 -151 -37v149q180 50 344 50q202 0 301 -103q90 -93 90 -268v-809h-116zM606 567
q-142 0 -211 -43q-96 -59 -96 -198q0 -199 174 -199q114 0 175 76q56 70 56 186v178h-98zM623 1779h181l-218 -286h-154zM777 1489q-15 -55 -34 -95q-21 -47 -50 -80q-68 -76 -184 -76q-114 0 -183 75q-55 60 -85 176h139q13 -121 129 -121q118 0 127 121h141z" />
    <glyph glyph-name="uni1EB3" unicode="&#x1eb3;" horiz-adv-x="1069" 
d="M758 168q-107 -184 -336 -184q-336 0 -336 340q0 127 59 210q51 72 149 110q81 32 200 43q48 4 106 6q41 1 104 1v109q0 73 -14 118q-12 35 -35 58q-55 55 -168 55q-71 0 -154 -16q-65 -12 -151 -37v149q180 50 344 50q202 0 301 -103q90 -93 90 -268v-809h-116zM606 567
q-142 0 -211 -43q-96 -59 -96 -198q0 -199 174 -199q114 0 175 76q56 70 56 186v178h-98zM421 1797q41 13 64 17q25 5 49 5q68 0 105 -27q48 -36 48 -99q0 -37 -25 -76q-6 -10 -20 -26l-23 -25q-39 -43 -39 -67v-36h-107v40q0 34 20 68q5 9 20 26q5 7 19 21l16 18q8 8 15 19
q9 14 9 34q0 51 -47 51q-15 0 -35 -5q-13 -2 -69 -20v82zM777 1489q-15 -55 -34 -95q-21 -47 -50 -80q-68 -76 -184 -76q-114 0 -183 75q-55 60 -85 176h139q13 -121 129 -121q118 0 127 121h141z" />
    <glyph glyph-name="uni1EB5" unicode="&#x1eb5;" horiz-adv-x="1069" 
d="M758 168q-107 -184 -336 -184q-336 0 -336 340q0 127 59 210q51 72 149 110q81 32 200 43q48 4 106 6q41 1 104 1v109q0 73 -14 118q-12 35 -35 58q-55 55 -168 55q-71 0 -154 -16q-65 -12 -151 -37v149q180 50 344 50q202 0 301 -103q90 -93 90 -268v-809h-116zM606 567
q-142 0 -211 -43q-96 -59 -96 -198q0 -199 174 -199q114 0 175 76q56 70 56 186v178h-98zM738 1707v16h91v-23q0 -70 -41 -122q-46 -58 -119 -58q-44 0 -80 16q-26 11 -54 35q-57 48 -85 48q-71 0 -71 -80v-20h-91v43q0 171 165 171q40 0 73 -15q23 -11 51 -35
q59 -50 94 -50q67 0 67 74zM777 1489q-15 -55 -34 -95q-21 -47 -50 -80q-68 -76 -184 -76q-114 0 -183 75q-55 60 -85 176h139q13 -121 129 -121q118 0 127 121h141z" />
    <glyph glyph-name="uni1EB7" unicode="&#x1eb7;" horiz-adv-x="1069" 
d="M758 168q-107 -184 -336 -184q-336 0 -336 340q0 127 59 210q51 72 149 110q81 32 200 43q48 4 106 6q41 1 104 1v109q0 73 -14 118q-12 35 -35 58q-55 55 -168 55q-71 0 -154 -16q-65 -12 -151 -37v149q180 50 344 50q202 0 301 -103q90 -93 90 -268v-809h-116zM606 567
q-142 0 -211 -43q-96 -59 -96 -198q0 -199 174 -199q114 0 175 76q56 70 56 186v178h-98zM503 -271q-107 0 -107 107q0 106 107 106q105 0 105 -106q0 -107 -105 -107zM777 1489q-15 -55 -34 -95q-21 -47 -50 -80q-68 -76 -184 -76q-114 0 -183 75q-55 60 -85 176h139
q13 -121 129 -121q118 0 127 121h141z" />
    <glyph glyph-name="egrave" unicode="&#xe8;" horiz-adv-x="1062" 
d="M917 33q-157 -49 -326 -49q-264 0 -384 173q-53 77 -78 190q-23 103 -23 237q0 115 23 215q26 111 76 192q119 189 352 189q134 0 222 -60q78 -53 121 -153q37 -84 50 -208q6 -51 8 -113q2 -48 2 -111h-629q0 -83 11 -147q14 -76 43 -130q71 -129 235 -129q69 0 150 15
q63 11 147 34v-145zM751 666q0 65 -4 113q-7 70 -24 121q-46 136 -166 136q-125 0 -181 -133q-21 -50 -33 -121q-8 -50 -12 -116h420zM639 1246h-154l-218 286h181z" />
    <glyph glyph-name="eacute" unicode="&#xe9;" horiz-adv-x="1062" 
d="M917 33q-157 -49 -326 -49q-264 0 -384 173q-53 77 -78 190q-23 103 -23 237q0 115 23 215q26 111 76 192q119 189 352 189q134 0 222 -60q78 -53 121 -153q37 -84 50 -208q6 -51 8 -113q2 -48 2 -111h-629q0 -83 11 -147q14 -76 43 -130q71 -129 235 -129q69 0 150 15
q63 11 147 34v-145zM751 666q0 65 -4 113q-7 70 -24 121q-46 136 -166 136q-125 0 -181 -133q-21 -50 -33 -121q-8 -50 -12 -116h420zM600 1532h181l-218 -286h-154z" />
    <glyph glyph-name="uni1EBB" unicode="&#x1ebb;" horiz-adv-x="1062" 
d="M917 33q-157 -49 -326 -49q-264 0 -384 173q-53 77 -78 190q-23 103 -23 237q0 115 23 215q26 111 76 192q119 189 352 189q134 0 222 -60q78 -53 121 -153q37 -84 50 -208q6 -51 8 -113q2 -48 2 -111h-629q0 -83 11 -147q14 -76 43 -130q71 -129 235 -129q69 0 150 15
q63 11 147 34v-145zM751 666q0 65 -4 113q-7 70 -24 121q-46 136 -166 136q-125 0 -181 -133q-21 -50 -33 -121q-8 -50 -12 -116h420zM467 1575q41 13 64 17q25 5 49 5q68 0 105 -27q48 -36 48 -99q0 -37 -25 -76q-6 -10 -20 -26l-23 -25q-39 -43 -39 -67v-36h-107v40
q0 34 20 68q5 9 20 26q5 7 19 21l16 18q8 8 15 19q9 14 9 34q0 51 -47 51q-15 0 -35 -5q-13 -2 -69 -20v82z" />
    <glyph glyph-name="uni1EBD" unicode="&#x1ebd;" horiz-adv-x="1062" 
d="M917 33q-157 -49 -326 -49q-264 0 -384 173q-53 77 -78 190q-23 103 -23 237q0 115 23 215q26 111 76 192q119 189 352 189q134 0 222 -60q78 -53 121 -153q37 -84 50 -208q6 -51 8 -113q2 -48 2 -111h-629q0 -83 11 -147q14 -76 43 -130q71 -129 235 -129q69 0 150 15
q63 11 147 34v-145zM751 666q0 65 -4 113q-7 70 -24 121q-46 136 -166 136q-125 0 -181 -133q-21 -50 -33 -121q-8 -50 -12 -116h420zM771 1438v16h91v-23q0 -70 -41 -122q-46 -58 -119 -58q-44 0 -80 16q-26 11 -54 35q-57 48 -85 48q-71 0 -71 -80v-20h-91v43
q0 171 165 171q40 0 73 -15q23 -11 51 -35q59 -50 94 -50q67 0 67 74z" />
    <glyph glyph-name="uni1EB9" unicode="&#x1eb9;" horiz-adv-x="1062" 
d="M917 33q-157 -49 -326 -49q-264 0 -384 173q-53 77 -78 190q-23 103 -23 237q0 115 23 215q26 111 76 192q119 189 352 189q134 0 222 -60q78 -53 121 -153q37 -84 50 -208q6 -51 8 -113q2 -48 2 -111h-629q0 -83 11 -147q14 -76 43 -130q71 -129 235 -129q69 0 150 15
q63 11 147 34v-145zM751 666q0 65 -4 113q-7 70 -24 121q-46 136 -166 136q-125 0 -181 -133q-21 -50 -33 -121q-8 -50 -12 -116h420zM532 -271q-107 0 -107 107q0 106 107 106q105 0 105 -106q0 -107 -105 -107z" />
    <glyph glyph-name="ecircumflex" unicode="&#xea;" horiz-adv-x="1062" 
d="M917 33q-157 -49 -326 -49q-264 0 -384 173q-53 77 -78 190q-23 103 -23 237q0 115 23 215q26 111 76 192q119 189 352 189q134 0 222 -60q78 -53 121 -153q37 -84 50 -208q6 -51 8 -113q2 -48 2 -111h-629q0 -83 11 -147q14 -76 43 -130q71 -129 235 -129q69 0 150 15
q63 11 147 34v-145zM751 666q0 65 -4 113q-7 70 -24 121q-46 136 -166 136q-125 0 -181 -133q-21 -50 -33 -121q-8 -50 -12 -116h420zM819 1246h-130l-131 135l-131 -135h-129l177 249h167z" />
    <glyph glyph-name="uni1EC1" unicode="&#x1ec1;" horiz-adv-x="1062" 
d="M917 33q-157 -49 -326 -49q-264 0 -384 173q-53 77 -78 190q-23 103 -23 237q0 115 23 215q26 111 76 192q119 189 352 189q134 0 222 -60q78 -53 121 -153q37 -84 50 -208q6 -51 8 -113q2 -48 2 -111h-629q0 -83 11 -147q14 -76 43 -130q71 -129 235 -129q69 0 150 15
q63 11 147 34v-145zM751 666q0 65 -4 113q-7 70 -24 121q-46 136 -166 136q-125 0 -181 -133q-21 -50 -33 -121q-8 -50 -12 -116h420zM931 1378h-154l-218 286h181zM819 1246h-130l-131 135l-131 -135h-129l177 249h167z" />
    <glyph glyph-name="uni1EBF" unicode="&#x1ebf;" horiz-adv-x="1062" 
d="M917 33q-157 -49 -326 -49q-264 0 -384 173q-53 77 -78 190q-23 103 -23 237q0 115 23 215q26 111 76 192q119 189 352 189q134 0 222 -60q78 -53 121 -153q37 -84 50 -208q6 -51 8 -113q2 -48 2 -111h-629q0 -83 11 -147q14 -76 43 -130q71 -129 235 -129q69 0 150 15
q63 11 147 34v-145zM751 666q0 65 -4 113q-7 70 -24 121q-46 136 -166 136q-125 0 -181 -133q-21 -50 -33 -121q-8 -50 -12 -116h420zM918 1692h181l-218 -286h-154zM819 1246h-130l-131 135l-131 -135h-129l177 249h167z" />
    <glyph glyph-name="uni1EC3" unicode="&#x1ec3;" horiz-adv-x="1062" 
d="M917 33q-157 -49 -326 -49q-264 0 -384 173q-53 77 -78 190q-23 103 -23 237q0 115 23 215q26 111 76 192q119 189 352 189q134 0 222 -60q78 -53 121 -153q37 -84 50 -208q6 -51 8 -113q2 -48 2 -111h-629q0 -83 11 -147q14 -76 43 -130q71 -129 235 -129q69 0 150 15
q63 11 147 34v-145zM751 666q0 65 -4 113q-7 70 -24 121q-46 136 -166 136q-125 0 -181 -133q-21 -50 -33 -121q-8 -50 -12 -116h420zM682 1745q41 13 64 17q25 5 49 5q68 0 105 -27q48 -36 48 -99q0 -37 -25 -76q-6 -10 -20 -26l-23 -25q-39 -43 -39 -67v-36h-107v40
q0 34 20 68q5 9 20 26q5 7 19 21l16 18q8 8 15 19q9 14 9 34q0 51 -47 51q-15 0 -35 -5q-13 -2 -69 -20v82zM819 1246h-130l-131 135l-131 -135h-129l177 249h167z" />
    <glyph glyph-name="uni1EC5" unicode="&#x1ec5;" horiz-adv-x="1062" 
d="M917 33q-157 -49 -326 -49q-264 0 -384 173q-53 77 -78 190q-23 103 -23 237q0 115 23 215q26 111 76 192q119 189 352 189q134 0 222 -60q78 -53 121 -153q37 -84 50 -208q6 -51 8 -113q2 -48 2 -111h-629q0 -83 11 -147q14 -76 43 -130q71 -129 235 -129q69 0 150 15
q63 11 147 34v-145zM751 666q0 65 -4 113q-7 70 -24 121q-46 136 -166 136q-125 0 -181 -133q-21 -50 -33 -121q-8 -50 -12 -116h420zM789 1700v16h91v-23q0 -70 -41 -122q-46 -58 -119 -58q-44 0 -80 16q-26 11 -54 35q-57 48 -85 48q-71 0 -71 -80v-20h-91v43
q0 171 165 171q40 0 73 -15q23 -11 51 -35q59 -50 94 -50q67 0 67 74zM819 1246h-130l-131 135l-131 -135h-129l177 249h167z" />
    <glyph glyph-name="uni1EC7" unicode="&#x1ec7;" horiz-adv-x="1062" 
d="M917 33q-157 -49 -326 -49q-264 0 -384 173q-53 77 -78 190q-23 103 -23 237q0 115 23 215q26 111 76 192q119 189 352 189q134 0 222 -60q78 -53 121 -153q37 -84 50 -208q6 -51 8 -113q2 -48 2 -111h-629q0 -83 11 -147q14 -76 43 -130q71 -129 235 -129q69 0 150 15
q63 11 147 34v-145zM751 666q0 65 -4 113q-7 70 -24 121q-46 136 -166 136q-125 0 -181 -133q-21 -50 -33 -121q-8 -50 -12 -116h420zM532 -271q-107 0 -107 107q0 106 107 106q105 0 105 -106q0 -107 -105 -107zM819 1246h-130l-131 135l-131 -135h-129l177 249h167z" />
    <glyph glyph-name="igrave" unicode="&#xec;" horiz-adv-x="567" 
d="M399 0h-213v1020h-133v143h346v-1163zM435 1246h-154l-218 286h181z" />
    <glyph glyph-name="iacute" unicode="&#xed;" horiz-adv-x="567" 
d="M399 0h-213v1020h-133v143h346v-1163zM343 1532h181l-218 -286h-154z" />
    <glyph glyph-name="uni1EC9" unicode="&#x1ec9;" horiz-adv-x="567" 
d="M399 0h-213v1020h-133v143h346v-1163zM174 1575q41 13 64 17q25 5 49 5q68 0 105 -27q48 -36 48 -99q0 -37 -25 -76q-6 -10 -20 -26l-23 -25q-39 -43 -39 -67v-36h-107v40q0 34 20 68q5 9 20 26q5 7 19 21l16 18q8 8 15 19q9 14 9 34q0 51 -47 51q-15 0 -35 -5
q-13 -2 -69 -20v82z" />
    <glyph glyph-name="itilde" unicode="&#x129;" horiz-adv-x="567" 
d="M399 0h-213v1020h-133v143h346v-1163zM465 1438v16h91v-23q0 -70 -41 -122q-46 -58 -119 -58q-44 0 -80 16q-26 11 -54 35q-57 48 -85 48q-71 0 -71 -80v-20h-91v43q0 171 165 171q40 0 73 -15q23 -11 51 -35q59 -50 94 -50q67 0 67 74z" />
    <glyph glyph-name="uni1ECB" unicode="&#x1ecb;" horiz-adv-x="567" 
d="M293 1329q-121 0 -121 121t121 121q120 0 120 -121t-120 -121zM399 0h-213v1020h-133v143h346v-1163zM291 -271q-107 0 -107 107q0 106 107 106q105 0 105 -106q0 -107 -105 -107z" />
    <glyph glyph-name="ograve" unicode="&#xf2;" horiz-adv-x="1150" 
d="M938 157q-119 -173 -363 -173q-257 0 -374 189q-50 81 -74 197q-21 102 -21 230q0 253 107 405q123 175 362 175q242 0 363 -173q106 -152 106 -411q0 -284 -106 -439zM813 736q-12 80 -37 141q-65 159 -201 159q-145 0 -206 -156q-24 -59 -34 -140q-8 -62 -8 -134
q0 -77 7 -143q10 -90 33 -157q27 -82 74 -127q55 -52 134 -52q151 0 209 164q23 65 32 156q7 67 7 159q0 66 -10 130zM679 1246h-154l-218 286h181z" />
    <glyph glyph-name="oacute" unicode="&#xf3;" horiz-adv-x="1150" 
d="M938 157q-119 -173 -363 -173q-257 0 -374 189q-50 81 -74 197q-21 102 -21 230q0 253 107 405q123 175 362 175q242 0 363 -173q106 -152 106 -411q0 -284 -106 -439zM813 736q-12 80 -37 141q-65 159 -201 159q-145 0 -206 -156q-24 -59 -34 -140q-8 -62 -8 -134
q0 -77 7 -143q10 -90 33 -157q27 -82 74 -127q55 -52 134 -52q151 0 209 164q23 65 32 156q7 67 7 159q0 66 -10 130zM614 1532h181l-218 -286h-154z" />
    <glyph glyph-name="uni1ECF" unicode="&#x1ecf;" horiz-adv-x="1150" 
d="M938 157q-119 -173 -363 -173q-257 0 -374 189q-50 81 -74 197q-21 102 -21 230q0 253 107 405q123 175 362 175q242 0 363 -173q106 -152 106 -411q0 -284 -106 -439zM813 736q-12 80 -37 141q-65 159 -201 159q-145 0 -206 -156q-24 -59 -34 -140q-8 -62 -8 -134
q0 -77 7 -143q10 -90 33 -157q27 -82 74 -127q55 -52 134 -52q151 0 209 164q23 65 32 156q7 67 7 159q0 66 -10 130zM449 1575q41 13 64 17q25 5 49 5q68 0 105 -27q48 -36 48 -99q0 -37 -25 -76q-6 -10 -20 -26l-23 -25q-39 -43 -39 -67v-36h-107v40q0 34 20 68q5 9 20 26
q5 7 19 21l16 18q8 8 15 19q9 14 9 34q0 51 -47 51q-15 0 -35 -5q-13 -2 -69 -20v82z" />
    <glyph glyph-name="otilde" unicode="&#xf5;" horiz-adv-x="1150" 
d="M938 157q-119 -173 -363 -173q-257 0 -374 189q-50 81 -74 197q-21 102 -21 230q0 253 107 405q123 175 362 175q242 0 363 -173q106 -152 106 -411q0 -284 -106 -439zM813 736q-12 80 -37 141q-65 159 -201 159q-145 0 -206 -156q-24 -59 -34 -140q-8 -62 -8 -134
q0 -77 7 -143q10 -90 33 -157q27 -82 74 -127q55 -52 134 -52q151 0 209 164q23 65 32 156q7 67 7 159q0 66 -10 130zM754 1438v16h91v-23q0 -70 -41 -122q-46 -58 -119 -58q-44 0 -80 16q-26 11 -54 35q-57 48 -85 48q-71 0 -71 -80v-20h-91v43q0 171 165 171q40 0 73 -15
q23 -11 51 -35q59 -50 94 -50q67 0 67 74z" />
    <glyph glyph-name="uni1ECD" unicode="&#x1ecd;" horiz-adv-x="1150" 
d="M938 157q-119 -173 -363 -173q-257 0 -374 189q-50 81 -74 197q-21 102 -21 230q0 253 107 405q123 175 362 175q242 0 363 -173q106 -152 106 -411q0 -284 -106 -439zM813 736q-12 80 -37 141q-65 159 -201 159q-145 0 -206 -156q-24 -59 -34 -140q-8 -62 -8 -134
q0 -77 7 -143q10 -90 33 -157q27 -82 74 -127q55 -52 134 -52q151 0 209 164q23 65 32 156q7 67 7 159q0 66 -10 130zM576 -271q-107 0 -107 107q0 106 107 106q105 0 105 -106q0 -107 -105 -107z" />
    <glyph glyph-name="ocircumflex" unicode="&#xf4;" horiz-adv-x="1150" 
d="M938 157q-119 -173 -363 -173q-257 0 -374 189q-50 81 -74 197q-21 102 -21 230q0 253 107 405q123 175 362 175q242 0 363 -173q106 -152 106 -411q0 -284 -106 -439zM813 736q-12 80 -37 141q-65 159 -201 159q-145 0 -206 -156q-24 -59 -34 -140q-8 -62 -8 -134
q0 -77 7 -143q10 -90 33 -157q27 -82 74 -127q55 -52 134 -52q151 0 209 164q23 65 32 156q7 67 7 159q0 66 -10 130zM835 1246h-130l-131 135l-131 -135h-129l177 249h167z" />
    <glyph glyph-name="uni1ED3" unicode="&#x1ed3;" horiz-adv-x="1150" 
d="M938 157q-119 -173 -363 -173q-257 0 -374 189q-50 81 -74 197q-21 102 -21 230q0 253 107 405q123 175 362 175q242 0 363 -173q106 -152 106 -411q0 -284 -106 -439zM813 736q-12 80 -37 141q-65 159 -201 159q-145 0 -206 -156q-24 -59 -34 -140q-8 -62 -8 -134
q0 -77 7 -143q10 -90 33 -157q27 -82 74 -127q55 -52 134 -52q151 0 209 164q23 65 32 156q7 67 7 159q0 66 -10 130zM938 1388h-154l-218 286h181zM835 1246h-130l-131 135l-131 -135h-129l177 249h167z" />
    <glyph glyph-name="uni1ED1" unicode="&#x1ed1;" horiz-adv-x="1150" 
d="M938 157q-119 -173 -363 -173q-257 0 -374 189q-50 81 -74 197q-21 102 -21 230q0 253 107 405q123 175 362 175q242 0 363 -173q106 -152 106 -411q0 -284 -106 -439zM813 736q-12 80 -37 141q-65 159 -201 159q-145 0 -206 -156q-24 -59 -34 -140q-8 -62 -8 -134
q0 -77 7 -143q10 -90 33 -157q27 -82 74 -127q55 -52 134 -52q151 0 209 164q23 65 32 156q7 67 7 159q0 66 -10 130zM952 1683h181l-218 -286h-154zM835 1246h-130l-131 135l-131 -135h-129l177 249h167z" />
    <glyph glyph-name="uni1ED5" unicode="&#x1ed5;" horiz-adv-x="1150" 
d="M938 157q-119 -173 -363 -173q-257 0 -374 189q-50 81 -74 197q-21 102 -21 230q0 253 107 405q123 175 362 175q242 0 363 -173q106 -152 106 -411q0 -284 -106 -439zM813 736q-12 80 -37 141q-65 159 -201 159q-145 0 -206 -156q-24 -59 -34 -140q-8 -62 -8 -134
q0 -77 7 -143q10 -90 33 -157q27 -82 74 -127q55 -52 134 -52q151 0 209 164q23 65 32 156q7 67 7 159q0 66 -10 130zM718 1724q41 13 64 17q25 5 49 5q68 0 105 -27q48 -36 48 -99q0 -37 -25 -76q-6 -10 -20 -26l-23 -25q-39 -43 -39 -67v-36h-107v40q0 34 20 68q5 9 20 26
q5 7 19 21l16 18q8 8 15 19q9 14 9 34q0 51 -47 51q-15 0 -35 -5q-13 -2 -69 -20v82zM835 1246h-130l-131 135l-131 -135h-129l177 249h167z" />
    <glyph glyph-name="uni1ED7" unicode="&#x1ed7;" horiz-adv-x="1150" 
d="M938 157q-119 -173 -363 -173q-257 0 -374 189q-50 81 -74 197q-21 102 -21 230q0 253 107 405q123 175 362 175q242 0 363 -173q106 -152 106 -411q0 -284 -106 -439zM813 736q-12 80 -37 141q-65 159 -201 159q-145 0 -206 -156q-24 -59 -34 -140q-8 -62 -8 -134
q0 -77 7 -143q10 -90 33 -157q27 -82 74 -127q55 -52 134 -52q151 0 209 164q23 65 32 156q7 67 7 159q0 66 -10 130zM807 1706v16h91v-23q0 -70 -41 -122q-46 -58 -119 -58q-44 0 -80 16q-26 11 -54 35q-57 48 -85 48q-71 0 -71 -80v-20h-91v43q0 171 165 171q40 0 73 -15
q23 -11 51 -35q59 -50 94 -50q67 0 67 74zM835 1246h-130l-131 135l-131 -135h-129l177 249h167z" />
    <glyph glyph-name="uni1ED9" unicode="&#x1ed9;" horiz-adv-x="1150" 
d="M938 157q-119 -173 -363 -173q-257 0 -374 189q-50 81 -74 197q-21 102 -21 230q0 253 107 405q123 175 362 175q242 0 363 -173q106 -152 106 -411q0 -284 -106 -439zM813 736q-12 80 -37 141q-65 159 -201 159q-145 0 -206 -156q-24 -59 -34 -140q-8 -62 -8 -134
q0 -77 7 -143q10 -90 33 -157q27 -82 74 -127q55 -52 134 -52q151 0 209 164q23 65 32 156q7 67 7 159q0 66 -10 130zM576 -271q-107 0 -107 107q0 106 107 106q105 0 105 -106q0 -107 -105 -107zM835 1246h-130l-131 135l-131 -135h-129l177 249h167z" />
    <glyph glyph-name="glyph217" unicode="&#xf9;" horiz-adv-x="1161" 
d="M843 172q-109 -188 -338 -188q-354 0 -354 370v809h213v-774q0 -121 37 -185q45 -77 147 -77q125 0 190 101q54 85 54 216v719h213v-1163h-119zM694 1246h-154l-218 286h181z" />
    <glyph glyph-name="glyph218" unicode="&#xfa;" horiz-adv-x="1161" 
d="M843 172q-109 -188 -338 -188q-354 0 -354 370v809h213v-774q0 -121 37 -185q45 -77 147 -77q125 0 190 101q54 85 54 216v719h213v-1163h-119zM633 1532h181l-218 -286h-154z" />
    <glyph glyph-name="uni1EE7" unicode="&#x1ee7;" horiz-adv-x="1161" 
d="M843 172q-109 -188 -338 -188q-354 0 -354 370v809h213v-774q0 -121 37 -185q45 -77 147 -77q125 0 190 101q54 85 54 216v719h213v-1163h-119zM470 1575q41 13 64 17q25 5 49 5q68 0 105 -27q48 -36 48 -99q0 -37 -25 -76q-6 -10 -20 -26l-23 -25q-39 -43 -39 -67v-36
h-107v40q0 34 20 68q5 9 20 26q5 7 19 21l16 18q8 8 15 19q9 14 9 34q0 51 -47 51q-15 0 -35 -5q-13 -2 -69 -20v82z" />
    <glyph glyph-name="utilde" unicode="&#x169;" horiz-adv-x="1161" 
d="M843 172q-109 -188 -338 -188q-354 0 -354 370v809h213v-774q0 -121 37 -185q45 -77 147 -77q125 0 190 101q54 85 54 216v719h213v-1163h-119zM768 1438v16h91v-23q0 -70 -41 -122q-46 -58 -119 -58q-44 0 -80 16q-26 11 -54 35q-57 48 -85 48q-71 0 -71 -80v-20h-91v43
q0 171 165 171q40 0 73 -15q23 -11 51 -35q59 -50 94 -50q67 0 67 74z" />
    <glyph glyph-name="uni1EE5" unicode="&#x1ee5;" horiz-adv-x="1161" 
d="M843 172q-109 -188 -338 -188q-354 0 -354 370v809h213v-774q0 -121 37 -185q45 -77 147 -77q125 0 190 101q54 85 54 216v719h213v-1163h-119zM576 -271q-107 0 -107 107q0 106 107 106q105 0 105 -106q0 -107 -105 -107z" />
    <glyph glyph-name="uhorn" unicode="&#x1b0;" horiz-adv-x="1161" 
d="M1005 831v-831h-119l-43 172q-110 -188 -338 -188q-354 0 -354 370v809h213v-774q0 -121 36 -185q45 -77 148 -77q125 0 189 101q55 85 55 216v719h213v-139q47 51 40 156h167q-3 -182 -62 -264q-44 -61 -145 -85z" />
    <glyph glyph-name="uni1EEB" unicode="&#x1eeb;" horiz-adv-x="1161" 
d="M693 1246h-154l-218 286h181zM1005 831v-831h-119l-43 172q-110 -188 -338 -188q-354 0 -354 370v809h213v-774q0 -121 36 -185q45 -77 148 -77q125 0 189 101q55 85 55 216v719h213v-139q47 51 40 156h167q-3 -182 -62 -264q-44 -61 -145 -85z" />
    <glyph glyph-name="uni1EE9" unicode="&#x1ee9;" horiz-adv-x="1161" 
d="M632 1532h181l-218 -286h-154zM1005 831v-831h-119l-43 172q-110 -188 -338 -188q-354 0 -354 370v809h213v-774q0 -121 36 -185q45 -77 148 -77q125 0 189 101q55 85 55 216v719h213v-139q47 51 40 156h167q-3 -182 -62 -264q-44 -61 -145 -85z" />
    <glyph glyph-name="uni1EED" unicode="&#x1eed;" horiz-adv-x="1161" 
d="M469 1575q41 13 64 17q25 5 49 5q68 0 105 -27q48 -36 48 -99q0 -37 -25 -76q-6 -10 -20 -26l-23 -25q-39 -43 -39 -67v-36h-107v40q0 34 20 68q5 9 20 26q5 7 19 21l16 18q8 8 15 19q9 14 9 34q0 51 -47 51q-15 0 -35 -5q-13 -2 -69 -20v82zM1005 831v-831h-119l-43 172
q-110 -188 -338 -188q-354 0 -354 370v809h213v-774q0 -121 36 -185q45 -77 148 -77q125 0 189 101q55 85 55 216v719h213v-139q47 51 40 156h167q-3 -182 -62 -264q-44 -61 -145 -85z" />
    <glyph glyph-name="uni1EEF" unicode="&#x1eef;" horiz-adv-x="1161" 
d="M807 1438v16h91v-23q0 -70 -41 -122q-46 -58 -119 -58q-44 0 -80 16q-26 11 -54 35q-57 48 -85 48q-71 0 -71 -80v-20h-91v43q0 171 165 171q40 0 73 -15q23 -11 51 -35q59 -50 94 -50q67 0 67 74zM1005 831v-831h-119l-43 172q-110 -188 -338 -188q-354 0 -354 370v809
h213v-774q0 -121 36 -185q45 -77 148 -77q125 0 189 101q55 85 55 216v719h213v-139q47 51 40 156h167q-3 -182 -62 -264q-44 -61 -145 -85z" />
    <glyph glyph-name="uni1EF1" unicode="&#x1ef1;" horiz-adv-x="1161" 
d="M575 -271q-107 0 -107 107q0 106 107 106q105 0 105 -106q0 -107 -105 -107zM1005 831v-831h-119l-43 172q-110 -188 -338 -188q-354 0 -354 370v809h213v-774q0 -121 36 -185q45 -77 148 -77q125 0 189 101q55 85 55 216v719h213v-139q47 51 40 156h167
q-3 -182 -62 -264q-44 -61 -145 -85z" />
    <glyph glyph-name="ohorn" unicode="&#x1a1;" horiz-adv-x="1150" 
d="M813 736q-12 80 -37 141q-65 159 -201 159q-144 0 -206 -156q-23 -59 -33 -140q-8 -62 -8 -134q0 -77 7 -143q9 -90 32 -157q28 -82 75 -127q54 -52 133 -52q151 0 210 164q22 65 32 156q6 67 6 159q0 66 -10 130zM1009 857q35 -113 35 -261q0 -284 -106 -439
q-118 -173 -363 -173q-257 0 -374 189q-50 81 -74 197q-21 102 -21 230q0 253 108 405q122 175 361 175q234 0 355 -162q55 49 47 162h167q-3 -182 -62 -264q-26 -36 -73 -59z" />
    <glyph glyph-name="uni1EDD" unicode="&#x1edd;" horiz-adv-x="1150" 
d="M813 736q-12 80 -37 141q-65 159 -201 159q-144 0 -206 -156q-23 -59 -33 -140q-8 -62 -8 -134q0 -77 7 -143q9 -90 32 -157q28 -82 75 -127q54 -52 133 -52q151 0 210 164q22 65 32 156q6 67 6 159q0 66 -10 130zM679 1246h-154l-218 286h181zM1009 857q35 -113 35 -261
q0 -284 -106 -439q-118 -173 -363 -173q-257 0 -374 189q-50 81 -74 197q-21 102 -21 230q0 253 108 405q122 175 361 175q234 0 355 -162q55 49 47 162h167q-3 -182 -62 -264q-26 -36 -73 -59z" />
    <glyph glyph-name="uni1EDB" unicode="&#x1edb;" horiz-adv-x="1150" 
d="M813 736q-12 80 -37 141q-65 159 -201 159q-144 0 -206 -156q-23 -59 -33 -140q-8 -62 -8 -134q0 -77 7 -143q9 -90 32 -157q28 -82 75 -127q54 -52 133 -52q151 0 210 164q22 65 32 156q6 67 6 159q0 66 -10 130zM614 1532h181l-218 -286h-154zM1009 857
q35 -113 35 -261q0 -284 -106 -439q-118 -173 -363 -173q-257 0 -374 189q-50 81 -74 197q-21 102 -21 230q0 253 108 405q122 175 361 175q234 0 355 -162q55 49 47 162h167q-3 -182 -62 -264q-26 -36 -73 -59z" />
    <glyph glyph-name="uni1EDF" unicode="&#x1edf;" horiz-adv-x="1150" 
d="M813 736q-12 80 -37 141q-65 159 -201 159q-144 0 -206 -156q-23 -59 -33 -140q-8 -62 -8 -134q0 -77 7 -143q9 -90 32 -157q28 -82 75 -127q54 -52 133 -52q151 0 210 164q22 65 32 156q6 67 6 159q0 66 -10 130zM449 1575q41 13 64 17q25 5 49 5q68 0 105 -27
q48 -36 48 -99q0 -37 -25 -76q-6 -10 -20 -26l-23 -25q-39 -43 -39 -67v-36h-107v40q0 34 20 68q5 9 20 26q5 7 19 21l16 18q8 8 15 19q9 14 9 34q0 51 -47 51q-15 0 -35 -5q-13 -2 -69 -20v82zM1009 857q35 -113 35 -261q0 -284 -106 -439q-118 -173 -363 -173
q-257 0 -374 189q-50 81 -74 197q-21 102 -21 230q0 253 108 405q122 175 361 175q234 0 355 -162q55 49 47 162h167q-3 -182 -62 -264q-26 -36 -73 -59z" />
    <glyph glyph-name="uni1EE1" unicode="&#x1ee1;" horiz-adv-x="1150" 
d="M813 736q-12 80 -37 141q-65 159 -201 159q-144 0 -206 -156q-23 -59 -33 -140q-8 -62 -8 -134q0 -77 7 -143q9 -90 32 -157q28 -82 75 -127q54 -52 133 -52q151 0 210 164q22 65 32 156q6 67 6 159q0 66 -10 130zM754 1438v16h91v-23q0 -70 -41 -122q-46 -58 -119 -58
q-44 0 -80 16q-26 11 -54 35q-57 48 -85 48q-71 0 -71 -80v-20h-91v43q0 171 165 171q40 0 73 -15q23 -11 51 -35q59 -50 94 -50q67 0 67 74zM1009 857q35 -113 35 -261q0 -284 -106 -439q-118 -173 -363 -173q-257 0 -374 189q-50 81 -74 197q-21 102 -21 230
q0 253 108 405q122 175 361 175q234 0 355 -162q55 49 47 162h167q-3 -182 -62 -264q-26 -36 -73 -59z" />
    <glyph glyph-name="uni1EE3" unicode="&#x1ee3;" horiz-adv-x="1150" 
d="M813 736q-12 80 -37 141q-65 159 -201 159q-144 0 -206 -156q-23 -59 -33 -140q-8 -62 -8 -134q0 -77 7 -143q9 -90 32 -157q28 -82 75 -127q54 -52 133 -52q151 0 210 164q22 65 32 156q6 67 6 159q0 66 -10 130zM576 -271q-107 0 -107 107q0 106 107 106
q105 0 105 -106q0 -107 -105 -107zM1009 857q35 -113 35 -261q0 -284 -106 -439q-118 -173 -363 -173q-257 0 -374 189q-50 81 -74 197q-21 102 -21 230q0 253 108 405q122 175 361 175q234 0 355 -162q55 49 47 162h167q-3 -182 -62 -264q-26 -36 -73 -59z" />
    <glyph glyph-name="ygrave" unicode="&#x1ef3;" horiz-adv-x="978" 
d="M954 1163l-365 -1233q-81 -270 -315 -270q-84 0 -187 21v147q93 -18 168 -18q127 0 187 190h-88l-330 1163h219l254 -964l264 964h193zM639 1246h-154l-218 286h181z" />
    <glyph glyph-name="glyph235" unicode="&#xfd;" horiz-adv-x="978" 
d="M954 1163l-365 -1233q-81 -270 -315 -270q-84 0 -187 21v147q93 -18 168 -18q127 0 187 190h-88l-330 1163h219l254 -964l264 964h193zM543 1532h181l-218 -286h-154z" />
    <glyph glyph-name="uni1EF7" unicode="&#x1ef7;" horiz-adv-x="978" 
d="M954 1163l-365 -1233q-81 -270 -315 -270q-84 0 -187 21v147q93 -18 168 -18q127 0 187 190h-88l-330 1163h219l254 -964l264 964h193zM420 1575q41 13 64 17q25 5 49 5q68 0 105 -27q48 -36 48 -99q0 -37 -25 -76q-6 -10 -20 -26l-23 -25q-39 -43 -39 -67v-36h-107v40
q0 34 20 68q5 9 20 26q5 7 19 21l16 18q8 8 15 19q9 14 9 34q0 51 -47 51q-15 0 -35 -5q-13 -2 -69 -20v82z" />
    <glyph glyph-name="uni1EF9" unicode="&#x1ef9;" horiz-adv-x="978" 
d="M954 1163l-365 -1233q-81 -270 -315 -270q-84 0 -187 21v147q93 -18 168 -18q127 0 187 190h-88l-330 1163h219l254 -964l264 964h193zM701 1438v16h91v-23q0 -70 -41 -122q-46 -58 -119 -58q-44 0 -80 16q-26 11 -54 35q-57 48 -85 48q-71 0 -71 -80v-20h-91v43
q0 171 165 171q40 0 73 -15q23 -11 51 -35q59 -50 94 -50q67 0 67 74z" />
    <glyph glyph-name="uni1EF5" unicode="&#x1ef5;" horiz-adv-x="978" 
d="M954 1163l-365 -1233q-81 -270 -315 -270q-84 0 -187 21v147q93 -18 168 -18q127 0 187 190h-88l-330 1163h219l254 -964l264 964h193zM721 -271q-107 0 -107 107q0 106 107 106q105 0 105 -106q0 -107 -105 -107z" />
    <glyph glyph-name="divide" unicode="&#xf7;" horiz-adv-x="1706" 
 />
    <glyph glyph-name="ugrave" horiz-adv-x="582" 
 />
    <glyph glyph-name="uacute" horiz-adv-x="580" 
 />
    <glyph glyph-name="yacute" horiz-adv-x="629" 
 />
    <glyph glyph-name="Ccaron" unicode="&#x10c;" horiz-adv-x="1274" 
 />
    <glyph glyph-name="ccaron" unicode="&#x10d;" horiz-adv-x="922" 
 />
    <glyph glyph-name="Dslash" unicode="&#x110;" horiz-adv-x="1275" 
d="M612 1491q310 0 442 -214q58 -93 84 -229q23 -119 23 -276q0 -165 -22 -286q-25 -147 -84 -247q-66 -114 -177 -174q-122 -65 -301 -65h-354v707h-152v149h152v635h389zM548 145q170 0 250 74q86 79 118 246q13 66 18 148q3 60 3 143q0 174 -29 296q-37 152 -120 224
q-83 70 -225 70h-125v-490h295v-149h-295v-562h110z" />
    <glyph glyph-name="dcroat" unicode="&#x111;" horiz-adv-x="1155" 
d="M999 1317v-1317h-117l-45 143q-95 -159 -315 -159q-126 0 -214 53q-78 49 -126 140q-42 80 -61 195q-15 94 -15 216q0 108 21 206q24 110 72 191q53 91 132 140q87 55 203 55q168 0 252 -101v238h-254v139h254v127h213v-127h141v-139h-141zM792 659l-3 72q-7 85 -25 145
q-50 160 -197 160q-146 0 -203 -160q-22 -61 -30 -146q-7 -60 -7 -138q0 -76 6 -138q9 -87 29 -152q26 -80 70 -124q51 -51 127 -51q162 0 210 166q18 61 22 152q1 33 1 77v137z" />
    <glyph glyph-name="quoteleft" unicode="&#x2018;" horiz-adv-x="447" 
d="M271 1020q22 114 52 228q27 104 58 201h-130q-33 -65 -75 -176q-24 -62 -44 -123q-22 -69 -38 -130h177z" />
    <glyph glyph-name="quoteright" unicode="&#x2019;" horiz-adv-x="448" 
d="M175 1446q-23 -115 -52 -228q-27 -104 -58 -201h129q34 65 76 175q24 63 44 123q22 69 38 131h-177z" />
    <glyph glyph-name="quotedblleft" unicode="&#x201c;" horiz-adv-x="790" 
d="M271 1020q22 114 52 228q27 104 58 201h-130q-33 -65 -75 -176q-24 -62 -44 -123q-22 -69 -38 -130h177zM613 1020q23 114 52 228q27 104 58 201h-129q-34 -65 -76 -176q-24 -62 -43 -123q-23 -69 -39 -130h177z" />
    <glyph glyph-name="quotedblright" unicode="&#x201d;" horiz-adv-x="790" 
d="M517 1446q-22 -115 -52 -228q-27 -104 -58 -201h130q33 65 75 175q24 63 44 123q22 69 38 131h-177zM175 1446q-23 -115 -52 -228q-27 -104 -58 -201h129q34 65 76 175q24 63 44 123q22 69 38 131h-177z" />
    <glyph glyph-name="ellipsis" unicode="&#x2026;" horiz-adv-x="1583" 
d="M300 -16q-143 0 -143 145q0 141 143 141q142 0 142 -141q0 -145 -142 -145zM792 -16q-143 0 -143 145q0 141 143 141q141 0 141 -141q0 -145 -141 -145zM1283 -16q-143 0 -143 145q0 141 143 141q142 0 142 -141q0 -145 -142 -145z" />
  </font>
</defs>
</svg>
